<svg height="512" viewBox="0 0 60 60" width="512" xmlns="http://www.w3.org/2000/svg"><g id="Icons"><path d="m43 11v44a4 4 0 0 1 -4 4h-34a4 4 0 0 1 -4-4v-44a4 4 0 0 1 4-4h15a2 2 0 0 0 4 0h15a4 4 0 0 1 4 4z" fill="#805333"/><path d="m57.629 48.734c1.377 4.486-1.417 6.352-2.884 6.985l-1.331.066c-1.4-.558-4.417-2.365-3.08-6.927z" fill="#d1d4d1"/><path d="m58 16.167v15.554l-8 .001v-21.722h7.832z" fill="#c03a2b"/><rect fill="#e64c3c" height="23" rx="2" width="10" x="49" y="28"/><circle cx="54" cy="57" fill="#3f5c6c" r="2"/><path d="m53 1h2a3 3 0 0 1 3 3v6a0 0 0 0 1 0 0h-8a0 0 0 0 1 0 0v-6a3 3 0 0 1 3-3z" fill="#c03a2b"/><path d="m55 10h-5a1 1 0 0 1 -1-1v-3a1 1 0 0 1 1-1h8a1 1 0 0 1 1 1v3" fill="#802f34"/><path d="m55 5h3a1 1 0 0 1 1 1v12a1 1 0 0 1 -1 1h-2a1 1 0 0 1 -1-1v-13a0 0 0 0 1 0 0z" fill="#e64c3c"/><path d="m33 11h5a1 1 0 0 1 1 1v42a1 1 0 0 1 -1 1h-32a1 1 0 0 1 -1-1v-42a1 1 0 0 1 1-1z" fill="#ecf0f1"/><path d="m29.74 7a2 2 0 0 1 -1.93-1.5 6 6 0 0 0 -11.62 0 2 2 0 0 1 -1.93 1.5h-3.26v8a2.006 2.006 0 0 0 2 2h18a2.006 2.006 0 0 0 2-2v-8zm-7.74 2a2 2 0 1 1 2-2 2.006 2.006 0 0 1 -2 2z" fill="#f3d55b"/><path d="m28 14h-12a1 1 0 0 1 0-2h12a1 1 0 0 1 0 2z" fill="#f0c419"/><g fill="#3f5c6c"><path d="m12 24h-2a1 1 0 0 1 0-2h2a1 1 0 0 1 0 2z"/><path d="m34 24h-18a1 1 0 0 1 0-2h18a1 1 0 0 1 0 2z"/><path d="m34 29h-24a1 1 0 0 1 0-2h24a1 1 0 0 1 0 2z"/><path d="m26 34h-16a1 1 0 0 1 0-2h16a1 1 0 0 1 0 2z"/><path d="m17 51h-2a1 1 0 0 1 0-2h2a1 1 0 0 1 0 2z"/><path d="m11 51h-2a1 1 0 0 1 0-2h2a1 1 0 0 1 0 2z"/><path d="m23 51h-2a1 1 0 0 1 0-2h2a1 1 0 0 1 0 2z"/><path d="m35 51h-2a1 1 0 0 1 0-2h2a1 1 0 0 1 0 2z"/><path d="m29 51h-2a1 1 0 0 1 0-2h2a1 1 0 0 1 0 2z"/><path d="m20 47a5.191 5.191 0 0 1 -3.9-1.4 3.772 3.772 0 0 1 -3.1 1.4c-3.164 0-4-3.271-4-5a1 1 0 0 1 2 0c0 .139.047 3 2 3a1.885 1.885 0 0 0 2-2.006 1 1 0 0 1 2-.007v.013c.01.322.2 2 3 2 2.263 0 2.953-.69 3-1.056a.976.976 0 0 1 1-.972 1.023 1.023 0 0 1 1 1.028c0 .123-.057 3-5 3z"/></g></g></svg>