<svg height="512" viewBox="0 0 128 128" width="512" xmlns="http://www.w3.org/2000/svg"><g><g><g fill="#19cffc"><path d="m68.2 41.64-26.56 26.56-39.89-39.9 26.55-26.55 8.01 8.01 2.48 2.47 6.94 6.94 2.47 2.48 6.94 6.94 2.48 2.48z"/><path d="m126.25 99.7-26.55 26.55-39.9-39.89 26.56-26.56 6.45 6.45 2.47 2.48 6.94 6.94 2.48 2.47z"/></g><path d="m124.284 21.875a6.716 6.716 0 0 0 0-9.495l-8.664-8.664a6.716 6.716 0 0 0 -9.5 0l-11.1 11.1 18.159 18.158z" fill="#635a70"/><path d="m92.638 15.803h13.438v25.68h-13.438z" fill="#ff8859" transform="matrix(.707 -.707 .707 .707 8.847 78.646)"/><path d="m85.526 24.315-73.851 73.852s9.563-1.552 14.637 3.521 3.521 14.637 3.521 14.637l73.852-73.851z" fill="#fff04a"/><path d="m29.833 116.325s1.552-9.563-3.521-14.637-14.637-3.521-14.637-3.521l-4.5 12.745 9.917 9.917z" fill="#ffd9c0"/><path d="m17.088 120.829-9.917-9.917-5.421 15.338z" fill="#635a70"/><circle cx="102.749" cy="102.749" fill="#635a70" r="6.015"/><g fill="#1ea1e3"><path d="m36.31 9.76-9.02 9.02a1.75 1.75 0 0 0 2.47 2.48l9.03-9.03z"/><path d="m45.73 19.17-9.03 9.03a1.75 1.75 0 0 0 0 2.47 1.738 1.738 0 0 0 2.48 0l9.02-9.02z"/><path d="m46.12 37.61a1.75 1.75 0 0 0 1.24 2.99 1.726 1.726 0 0 0 1.23-.51l9.03-9.02-2.48-2.48z"/><path d="m92.81 66.25-9.03 9.03a1.75 1.75 0 0 0 2.48 2.47l9.02-9.02z"/><path d="m102.22 75.67-9.02 9.02a1.75 1.75 0 0 0 1.24 2.99 1.743 1.743 0 0 0 1.23-.51l9.03-9.03z"/></g></g><g><path d="m52.691 58.9a1.744 1.744 0 0 0 1.238-.513l3.354-3.355a1.749 1.749 0 0 0 -2.474-2.474l-3.355 3.355a1.75 1.75 0 0 0 1.237 2.987z"/><path d="m102.749 110.514a7.766 7.766 0 1 0 -5.491-2.275 7.718 7.718 0 0 0 5.491 2.275zm-3.017-10.781a4.265 4.265 0 1 1 0 6.032 4.237 4.237 0 0 1 0-6.032z"/><path d="m122.889 93.861a1.75 1.75 0 0 0 -2.475 2.475l3.361 3.362-24.075 24.077-37.423-37.42 24.078-24.077 5.213 5.213-7.785 7.785a1.75 1.75 0 1 0 2.475 2.475l7.785-7.785 6.941 6.941-7.784 7.785a1.75 1.75 0 1 0 2.475 2.475l7.785-7.785 8.49 8.49a1.75 1.75 0 0 0 2.475-2.474l-9.725-9.727-15.87-15.871 16.092-16.092 9.5-9.5 11.1-11.1a8.461 8.461 0 0 0 0-11.969l-8.663-8.664a8.474 8.474 0 0 0 -11.969 0l-11.1 11.1-9.5 9.5-16.09 16.095-29.413-29.409-9.248-9.248a1.749 1.749 0 0 0 -2.475 0l-26.551 26.552a1.749 1.749 0 0 0 0 2.475l38.657 38.66-28.733 28.729a2.948 2.948 0 0 0 -.413.654l-4.5 12.746-5.424 15.338a1.75 1.75 0 0 0 2.233 2.233l15.338-5.42 12.745-4.505a1.977 1.977 0 0 0 .654-.413l28.73-28.732 38.658 38.657a1.748 1.748 0 0 0 2.474 0l26.552-26.552a1.749 1.749 0 0 0 0-2.475zm-15.527-88.907a4.971 4.971 0 0 1 7.021 0l8.663 8.664a4.962 4.962 0 0 1 0 7.019l-9.86 9.86-15.686-15.684zm-12.334 12.334 15.684 15.684-7.027 7.028-15.685-15.685zm-47.943 47.944a1.75 1.75 0 0 0 -2.475-2.475l-2.965 2.966-37.42-37.423 24.075-24.075 6.774 6.775-7.786 7.785a1.75 1.75 0 1 0 2.475 2.474l7.785-7.785 6.941 6.941-7.789 7.785a1.75 1.75 0 1 0 2.475 2.474l7.785-7.785 6.941 6.941-7.781 7.783a1.75 1.75 0 1 0 2.48 2.475l7.78-7.788 9.343 9.343-4.071 4.07a1.75 1.75 0 0 0 2.475 2.475l21.4-21.4 15.683 15.686-69.421 69.42c-.175-4.6-1.611-9.614-5.446-12.487a18.239 18.239 0 0 0 -10.238-3.2zm-34.126 34.552c4.173-.293 8.941.113 12.115 3.142 3.03 3.174 3.435 7.942 3.142 12.114l-10.671 3.772-4.178-4.179-4.179-4.178zm-8.338 23.6 3.279-9.272 5.993 5.993z"/></g></g></svg>