<?xml version="1.0" ?><!DOCTYPE svg  PUBLIC '-//W3C//DTD SVG 1.1//EN'  'http://www.w3.org/Graphics/SVG/1.1/DTD/svg11.dtd'><svg enable-background="new 0 0 190.801 229" height="229" id="Layer_1" overflow="visible" version="1.1" viewBox="0 0 190.801 229" width="190.801" xml:space="preserve" xmlns="http://www.w3.org/2000/svg" xmlns:xlink="http://www.w3.org/1999/xlink"><polygon points="151.096,71.714 106.292,71.714 106.292,163 83.422,163 83.422,71.714 39.723,71.714 39.723,50.06 83.422,50.06   83.422,8.152 106.292,8.152 106.292,50.06 151.096,50.06 151.096,71.714 "/><path d="M130.935,228c-11.348-27.339-35.836-46.262-64.221-46.262c-28.385,0-52.874,18.923-64.221,46.262H130.935z"/><path d="M130.739,187.249c-5.779,0-7.371,0.9-12.683,2.567c17.67,5.544,28.203,19.667,35.888,38.184h33.365  C177.313,203.918,155.742,187.249,130.739,187.249z"/></svg>