<svg height="512" viewBox="0 0 128 128" width="512" xmlns="http://www.w3.org/2000/svg"><g><g><path d="m59.294 17.982-12.333 16.685-13.615 10.666 5.615 22.334-5.615 31 7.384 11.351h36.564l9.333-23.351-10.666-25.667 3.666-24z" fill="#ececf1"/><g fill="#dbdae5"><path d="m70.807 61.627 3.479-22.776-10.286-9.621v75.788h9.908l7.32-18.314z"/><path d="m94.654 110.018-3.834-7.685-12.333-4.833-14.5 8 1.167 4.518z"/></g></g><g fill="#432c00"><path d="m110.018 108.268h-14.281l-3.35-6.716a1.753 1.753 0 0 0 -.928-.848l-12.333-4.833a1.748 1.748 0 0 0 -1.484.1l-7.142 3.935-15.96-17.636 20.745-18.336 9.452 22.746-2.512 6.286a1.75 1.75 0 0 0 3.25 1.3l2.777-6.949a1.751 1.751 0 0 0 -.009-1.317l-10.478-25.22 3.591-23.515a1.746 1.746 0 0 0 -.534-1.543l-6.48-6.062a1.75 1.75 0 1 0 -2.391 2.557l5.807 5.43-3.034 19.865-16.872-15.32a1.751 1.751 0 0 0 -2.352 2.592l17.84 16.2-37.372 33.03 4.081-22.536 6.042 6.675a1.751 1.751 0 0 0 2.6-2.349l-7.691-8.494 18.952-46.316 2.073 1.94a1.75 1.75 0 1 0 2.391-2.557l-3.927-3.677a1.748 1.748 0 0 0 -2.6.238l-12.195 16.498-13.426 10.519a1.75 1.75 0 0 0 -.619 1.8l3.668 14.593a1.75 1.75 0 0 0 3.4-.854l-3.391-13.49 11.557-9.053 2.013 1.828-11.554 28.221a1.7 1.7 0 0 0 -.1.35l-5.614 31a1.749 1.749 0 0 0 .255 1.266l5.625 8.647h-11.758a1.75 1.75 0 0 0 0 3.5h84.268a1.75 1.75 0 0 0 0-3.5zm-60.709-73.833 3.051-4.128-2.06 5.029zm29.3 64.994 10.942 4.288 2.269 4.551h-25.311l-.488-1.891zm-42.976-.45 16.279-14.39 15.438 17.055-4.212 2.324a1.749 1.749 0 0 0 -.849 1.97l.6 2.33h-21.209z"/><path d="m19.25 108.268h-1.268a1.75 1.75 0 0 0 0 3.5h1.268a1.75 1.75 0 0 0 0-3.5z"/><path d="m67.171 27.746a1.75 1.75 0 1 0 2.391-2.557l-.771-.72a1.75 1.75 0 1 0 -2.391 2.556z"/></g></g></svg>