<svg height="512pt" viewBox="0 0 512 512" width="512pt" xmlns="http://www.w3.org/2000/svg"><path d="m512 256c0 141.386719-114.613281 256-256 256s-256-114.613281-256-256 114.613281-256 256-256 256 114.613281 256 256zm0 0" fill="#ff432e"/><path d="m512 256c0-7.113281-.304688-14.160156-.875-21.128906l-153.125-153.125s-200.296875 349.230468-203.277344 349.261718l80.113282 80.113282c6.980468.574218 14.035156.878906 21.164062.878906 141.386719 0 256-114.613281 256-256zm0 0" fill="#db0404"/><path d="m154.722656 431.007812-.105468-.101562c0 .070312.039062.101562.105468.101562zm0 0" fill="#db0404"/><path d="m347.398438 435h-182.796876c-7.855468 0-14.21875-6.367188-14.21875-14.21875v-329.5625c0-7.851562 6.363282-14.21875 14.21875-14.21875h182.796876c7.855468 0 14.21875 6.367188 14.21875 14.21875v329.5625c0 7.851562-6.363282 14.21875-14.21875 14.21875zm0 0" fill="#414952"/><path d="m347.398438 77h-91.589844v358h91.589844c7.855468 0 14.21875-6.367188 14.21875-14.21875v-329.5625c0-7.851562-6.363282-14.21875-14.21875-14.21875zm0 0" fill="#23272b"/><path d="m162.667969 101.332031h186.667969v297.332031h-186.667969zm0 0" fill="#fff"/><path d="m255.808594 101.332031h93.527344v297.332031h-93.527344zm0 0" fill="#e9edf5"/><path d="m333 218.332031c0 42.527344-34.472656 77-77 77s-77-34.472656-77-77c0-42.523437 34.472656-77 77-77s77 34.476563 77 77zm0 0" fill="#4a7aff"/><path d="m256 141.332031c-.0625 0-.128906.007813-.191406.007813v153.988281c.066406 0 .128906.003906.191406.003906 42.527344 0 77-34.472656 77-77 0-42.523437-34.472656-77-77-77zm0 0" fill="#0053bf"/><path d="m287.792969 190.042969c0 17.558593-14.234375 31.792969-31.792969 31.792969s-31.792969-14.234376-31.792969-31.792969c0-17.558594 14.234375-31.792969 31.792969-31.792969s31.792969 14.234375 31.792969 31.792969zm0 0" fill="#53edf5"/><path d="m256 158.25c-.0625 0-.128906.003906-.191406.003906v63.574219c.066406 0 .128906.007813.191406.007813 17.558594 0 31.792969-14.234376 31.792969-31.792969 0-17.558594-14.234375-31.792969-31.792969-31.792969zm0 0" fill="#33ccde"/><path d="m256 295.332031c21.679688 0 41.261719-8.960937 55.253906-23.378906-4.34375-26.605469-27.421875-46.914063-55.253906-46.914063s-50.910156 20.308594-55.253906 46.914063c13.992187 14.417969 33.574218 23.378906 55.253906 23.378906zm0 0" fill="#53edf5"/><path d="m311.253906 271.953125c-4.34375-26.605469-27.421875-46.914063-55.253906-46.914063-.0625 0-.128906.007813-.191406.007813v70.28125c.066406 0 .128906.003906.191406.003906 21.679688 0 41.261719-8.960937 55.253906-23.378906zm0 0" fill="#33ccde"/><path d="m237.539062 340.332031c0 12.152344-9.851562 22-22 22-12.148437 0-22-9.847656-22-22 0-12.148437 9.851563-22 22-22 12.148438 0 22 9.851563 22 22zm0 0" fill="#53edf5"/><path d="m318.460938 340.332031c0 12.152344-9.851563 22-22 22-12.148438 0-22-9.847656-22-22 0-12.148437 9.851562-22 22-22 12.148437 0 22 9.851563 22 22zm0 0" fill="#4a7aff"/></svg>