<?xml version="1.0" encoding="iso-8859-1"?>
<!-- Generator: Adobe Illustrator 19.0.0, SVG Export Plug-In . SVG Version: 6.00 Build 0)  -->
<svg xmlns="http://www.w3.org/2000/svg" xmlns:xlink="http://www.w3.org/1999/xlink" version="1.1" id="Capa_1" x="0px" y="0px" viewBox="0 0 503.001 503.001" style="enable-background:new 0 0 503.001 503.001;" xml:space="preserve" width="512" height="512">
<g>
	<g>
		<g>
			<rect x="63.5" y="95.501" style="fill:#F5F4F7;" width="368" height="336"/>
			<polygon style="fill:#BFE666;" points="63.5,342.501 151.5,255.501 247.5,343.501 383.5,183.501 431.5,239.501 431.5,431.501      63.5,431.501    "/>
			<g>
				<polygon style="fill:#AFE040;" points="279.5,343.501 399.567,202.245 383.5,183.501 261.514,327.014     "/>
				<polygon style="fill:#AFE040;" points="168.196,270.805 151.5,255.501 63.5,342.501 63.5,375.501     "/>
			</g>
			<circle style="fill:#F0E513;" cx="247.5" cy="175.501" r="40"/>
		</g>
	</g>
	<g>
		<path d="M431.5,88.001h-368c-4.143,0-7.5,3.358-7.5,7.5v56.333c0,4.142,3.357,7.5,7.5,7.5s7.5-3.358,7.5-7.5v-48.833h353v116.226    l-34.806-40.607c-2.958-3.451-8.465-3.439-11.409,0.023L246.828,332.711l-90.26-82.739c-2.948-2.702-7.499-2.616-10.341,0.195    L71,324.54V187.168c0-4.142-3.357-7.5-7.5-7.5s-7.5,3.358-7.5,7.5v244.333c0,4.142,3.357,7.5,7.5,7.5h368    c4.143,0,7.5-3.358,7.5-7.5v-67.667c0-4.142-3.357-7.5-7.5-7.5s-7.5,3.358-7.5,7.5v60.167H71v-78.369l80.695-79.778l90.736,83.175    c3.093,2.834,8.068,2.522,10.783-0.671l130.309-153.305L424,242.275v85.893c0,4.142,3.357,7.5,7.5,7.5s7.5-3.358,7.5-7.5V95.501    C439,91.359,435.643,88.001,431.5,88.001z"/>
		<path d="M295,175.501c0-26.191-21.309-47.5-47.5-47.5s-47.5,21.309-47.5,47.5s21.309,47.5,47.5,47.5S295,201.692,295,175.501z     M215,175.501c0-17.92,14.579-32.5,32.5-32.5s32.5,14.58,32.5,32.5s-14.579,32.5-32.5,32.5S215,193.421,215,175.501z"/>
		<path d="M463.5,103.001h24c4.143,0,7.5-3.358,7.5-7.5s-3.357-7.5-7.5-7.5h-24c-4.143,0-7.5,3.358-7.5,7.5    S459.357,103.001,463.5,103.001z"/>
		<path d="M431.5,32.001c-4.143,0-7.5,3.358-7.5,7.5v24c0,4.142,3.357,7.5,7.5,7.5s7.5-3.358,7.5-7.5v-24    C439,35.359,435.643,32.001,431.5,32.001z"/>
		<path d="M31.5,88.001h-24c-4.143,0-7.5,3.358-7.5,7.5s3.357,7.5,7.5,7.5h24c4.143,0,7.5-3.358,7.5-7.5S35.643,88.001,31.5,88.001z    "/>
		<path d="M63.5,71.001c4.143,0,7.5-3.358,7.5-7.5v-24c0-4.142-3.357-7.5-7.5-7.5s-7.5,3.358-7.5,7.5v24    C56,67.643,59.357,71.001,63.5,71.001z"/>
		<path d="M487.5,424.001h-24c-4.143,0-7.5,3.358-7.5,7.5s3.357,7.5,7.5,7.5h24c4.143,0,7.5-3.358,7.5-7.5    S491.643,424.001,487.5,424.001z"/>
		<path d="M431.5,456.001c-4.143,0-7.5,3.358-7.5,7.5v24c0,4.142,3.357,7.5,7.5,7.5s7.5-3.358,7.5-7.5v-24    C439,459.359,435.643,456.001,431.5,456.001z"/>
		<path d="M31.5,424.001h-24c-4.143,0-7.5,3.358-7.5,7.5s3.357,7.5,7.5,7.5h24c4.143,0,7.5-3.358,7.5-7.5    S35.643,424.001,31.5,424.001z"/>
		<path d="M63.5,456.001c-4.143,0-7.5,3.358-7.5,7.5v24c0,4.142,3.357,7.5,7.5,7.5s7.5-3.358,7.5-7.5v-24    C71,459.359,67.643,456.001,63.5,456.001z"/>
		<path d="M227.34,69.741c3.403,2.27,8.135,1.319,10.4-2.08l9.76-14.64l9.76,14.64c2.446,3.669,7.69,4.417,11.07,1.578    c2.887-2.424,3.5-6.764,1.41-9.899l-13.227-19.84l13.227-19.84c2.298-3.446,1.366-8.103-2.08-10.4    c-3.445-2.297-8.103-1.367-10.4,2.08l-9.76,14.64l-9.76-14.64c-2.297-3.446-6.954-4.377-10.4-2.08    c-3.446,2.297-4.378,6.954-2.08,10.4l13.227,19.84l-13.227,19.84C222.962,62.787,223.894,67.444,227.34,69.741z"/>
		<path d="M499.66,233.26c-3.445-2.298-8.103-1.367-10.4,2.08l-9.76,14.64l-9.76-14.64c-2.266-3.401-7-4.347-10.4-2.08    s-4.347,7-2.08,10.4l14.74,22.11v21.729c0,4.142,3.357,7.5,7.5,7.5s7.5-3.358,7.5-7.5v-21.729l14.74-22.11    C504.038,240.215,503.106,235.558,499.66,233.26z"/>
	</g>
</g>















</svg>
