<svg version="1.0" xmlns="http://www.w3.org/2000/svg" width="1221.333" height="1221.333" viewBox="0 0 916 916"><path d="M411.7 33c-.9.4-1.2 19.5-1.2 84l.1 83.5h-4.3c-2.4 0-4.3-.4-4.3-.9s-.6-.4-1.2.1c-.7.5-3.1.8-5.3.6-5.4-.4-5.4-.4-10.3-.1-2.3.2-4.2-.1-4.2-.5 0-.5-.5-.5-1.2-.1-1.7 1-18.8 1.1-18.8.1 0-.5-.5-.5-1.1-.2-1.7 1.1-5.9 1.3-5.9.3 0-.5-.6-.6-1.2-.1-1.7 1-19.8 1-19.8 0 0-.5-.5-.5-1.2-.1-1.7 1-18.8 1.1-18.8.1 0-.5-.5-.5-1.1-.2-1.7 1.1-5.9 1.3-5.9.3 0-.5-.6-.6-1.2-.1-1.8 1-19.8 1-19.8-.1 0-.5-.6-.4-1.2.1-.7.4-4.7.7-8.8.6-9.6-.4-8-.4-19.2 0-5.4.1-9.8-.2-9.8-.7 0-.5-.5-.4-1.2.1s-2.8.8-4.5.7c-1.8-.1-3.6.2-3.9.8-.5.7-.9 75.4-.5 84.5.1 1 18.1 1.2 80.9 1.2 44.4 0 83.6.1 87.2.1h6.6l-.1 182.2v182.3l3.5.5c1.9.3 4.4.3 5.5-.1 1.1-.3 2.9-.3 4 .1s3.4.4 5.2-.1c1.8-.4 3.5-.3 3.8.2.3.4 1.6.5 2.8 0 1.2-.5 3.1-.5 4.2-.1s3.4.4 5.2-.1c1.8-.4 3.5-.3 3.8.2.3.4 1.6.5 2.8 0 1.2-.5 3.1-.5 4.2-.1s3.4.4 5.2-.1c1.8-.4 3.5-.3 3.8.2.3.4 1.6.5 2.8 0 1.2-.5 3.1-.5 4.2-.1s3.4.4 5.2-.1c1.8-.4 3.5-.3 3.8.2.3.4 1.5.5 2.7 0 1.2-.4 3.7-.5 5.5-.1 1.9.5 3.6.4 3.9-.2.3-.5 1.1-.5 1.9.2.8.6 1.6.7 1.9.2.3-.5 1.7-.7 3.1-.4 2.8.5 2.8 1.2 2.5-21.8-.1-6.3-.1-12-.1-12.5.2-9.4.2-15.2 0-16-.1-.6 0-1.5.1-2 .1-.6.1-7.1 0-14.5-.1-16-.1-14.7 0-23.5.1-3.9 0-7.5-.1-8-.1-.6 0-1.5.1-2 .1-.6.1-7.1 0-14.5-.1-16.2-.1-14.8 0-24 .1-4.1 0-8-.1-8.5-.1-.6 0-1.5.1-2 .2-1.2.2-28.6-.1-30-.1-.6 0-1.5.1-2 .2-1.2.2-28.6-.1-30-.1-.6 0-1.5.1-2 .2-1.2.2-28.6-.1-30-.1-.6 0-1.5.1-2 .2-1.2.2-28.6-.1-30-.1-.6 0-1.5.1-2 .2-1.2.2-28.6-.1-30-.1-.6 0-1.5.1-2 .2-1.2.2-28.6-.1-30-.1-.6 0-1.5.1-2 .1-.6.2-6.1.2-12.3 0-9.7.2-11.2 1.7-11.2.9 0 41.1-.1 89.4-.1H681l.1-2.7c.3-14.4 0-82.3-.5-83-.3-.5-3-.9-6.1-.8-3 .1-5.5-.3-5.5-.8s-.6-.4-1.2.1c-.7.4-4.7.7-8.8.6-9.6-.4-7.6-.4-21.8-.1-6.7.2-12.2-.1-12.2-.5 0-.5-.5-.5-1.2-.1-1.6 1-14.8 1.1-14.8.1 0-.5-.5-.5-1.2-.1-1.6 1-14.8 1.1-14.8.1 0-.5-.5-.5-1.2-.1-1.6 1-14.8 1.1-14.8.1 0-.4-.9-.3-2 .3-1.4.8-2 .8-2 0 0-.6-.5-.8-1.2-.4-1.7 1-18.8 1.1-18.8.1 0-.5-.5-.5-1.1-.2-1.7 1.1-5.9 1.3-5.9.3 0-.5-.6-.6-1.2-.1-1.8 1-19.8 1-19.8-.1 0-.5-.6-.4-1.2 0-1.1.8-7.5 1-19 .5-2.7-.1-2.7-.2-2.7-7.4 0-3.9 0-7.7-.1-8.2-.2-.6-.1-1.5 0-2 .2-1.2.2-28.6-.1-30-.1-.6 0-1.5.1-2 .2-1.2.2-28.6-.1-30-.1-.6 0-1.5.1-2 .2-1.2.2-28.6-.1-30-.1-.6 0-1.5.1-2 .2-1.2.2-28.6-.1-30-.1-.6 0-1.4.1-2 .5-2.6.2-20.6-.4-21.2-.7-.8-88.1-1-89.9-.3zm-88.9 694.5c-.2.2-2.8.6-5.8.9-3 .4-6.6.8-8 1-1.4.3-4.6.7-7.2 1.1-6.4.8-27.4 6-36.1 8.9-20.8 6.8-49.1 20.4-63 30.2-2.6 1.9-4.9 3.4-5.2 3.4-.3 0-1.1.5-1.8 1-.7.6-4.3 3.4-8.2 6.3-3.8 2.8-7.2 5.4-7.5 5.7-.3.3-3.2 2.7-6.5 5.5-14 11.6-35.8 35.1-47 50.5-2.2 3-4.3 5.6-4.7 5.8-.5.2-.8.9-.8 1.5 0 .7-.9 2.3-2 3.7-2.4 3-8.6 12.7-12.9 20.1-4.3 7.6-15.2 28.9-14.8 28.9.2 0-.6 2.1-1.9 4.7-2.1 4.4-2.1 4.9-.6 5.4.9.4 1.8.3 2 0 .1-.4 2.9-.4 6.1-.1 3.3.3 7.1.2 8.5-.1 1.4-.4 2.6-.4 2.6.1 0 .4 1.6.4 3.5 0s3.5-.4 3.5.1 1.1.4 2.5-.1c1.5-.6 2.6-.6 3 0 .4.7 1.3.7 2.4 0 1-.5 2.1-.7 2.5-.3.8.8 12.2.6 13.6-.2.5-.3 1-.2 1 .3 0 .6 1.4.7 3.5.2 1.9-.4 3.5-.4 3.5.1s1.1.4 2.5-.1c1.5-.6 2.6-.6 3 0 .4.6 1.3.7 2.4.1.9-.5 2.3-.6 3.1-.1.7.4 2.3.6 3.4.3 1.2-.2 2.7-.4 3.4-.4 1.2.1 2.6.1 6 .1.9 0 4.7 0 8.4.1 3.7 0 7.2-.2 7.8-.6.5-.3 1-.2 1 .2 0 .9 6.8.8 7.7-.1.3-.3 1.4-.1 2.4.4 1.2.7 2 .7 2.4 0 .4-.6 1.1-.7 1.7-.4 1.3.8 14.4.8 15.8-.1.5-.3 1-.3 1 .2 0 .9 13.3.8 15.6-.1.8-.3 1.4-.1 1.4.3 0 .5 1.6.5 3.5.1s3.5-.4 3.5.1 1.1.4 2.5-.1c1.5-.6 2.6-.6 3 0 .4.7 1.3.7 2.4 0 1-.5 2.1-.7 2.5-.3.8.8 12.2.6 13.6-.2.5-.3 1-.2 1 .3 0 .6 1.4.7 3.5.2 1.9-.4 3.5-.4 3.5.1s1.1.4 2.5-.1c1.5-.6 2.6-.6 3 0 .4.6 1.3.7 2.4.1.9-.5 2.3-.6 3.1-.1.7.4 2.3.6 3.4.3 1.2-.2 2.7-.4 3.4-.4 1.2.1 2.6.1 6 .1.9 0 4.7 0 8.4.1 3.7 0 7.2-.2 7.8-.6.5-.3 1-.2 1 .2 0 .9 6.8.8 7.7-.1.3-.3 1.4-.1 2.4.4 1.2.7 2 .7 2.4 0 .4-.6 1.1-.7 1.7-.4 1.3.8 14.4.8 15.8-.1.5-.3 1-.3 1 .2 0 .9 13.3.8 15.6-.1.8-.3 1.4-.1 1.4.3 0 .5 1.6.5 3.5.1s3.5-.4 3.5.1 1.1.4 2.5-.1c1.5-.6 2.6-.6 3 0 .4.7 1.3.7 2.4 0 1-.5 2.1-.7 2.5-.3.8.8 12.2.6 13.6-.2.5-.3 1-.2 1 .3 0 .6 1.4.7 3.5.2 1.9-.4 3.5-.4 3.5.1s1.1.4 2.5-.1c1.5-.6 2.6-.6 3 0 .4.6 1.3.7 2.4.1.9-.5 2.3-.6 3.1-.1.7.4 2.3.6 3.4.3 1.2-.2 2.7-.4 3.4-.4 1.2.1 2.6.1 6 .1.9 0 4.7 0 8.4.1 3.7 0 7.2-.2 7.8-.6.5-.3 1-.2 1 .2 0 .9 6.8.8 7.7-.1.3-.3 1.4-.1 2.4.4 1.2.7 2 .7 2.4 0 .4-.6 1.1-.7 1.7-.4 1.3.8 14.4.8 15.8-.1.5-.3 1-.3 1 .2 0 .9 13.3.8 15.6-.1.8-.3 1.4-.1 1.4.3 0 .5 1.6.5 3.5.1s3.5-.4 3.5.1 1.1.4 2.5-.1c1.5-.6 2.6-.6 3 0 .4.7 1.3.7 2.4 0 1-.5 2.1-.7 2.5-.3.8.8 12.2.6 13.6-.2.5-.3 1-.2 1 .3 0 .6 1.4.7 3.5.2 1.9-.4 3.5-.4 3.5.1s1.1.4 2.5-.1c1.5-.6 2.6-.6 3 0 .4.6 1.3.7 2.4.1.9-.5 2.3-.6 3.1-.1.7.4 2.3.6 3.4.3 1.2-.2 2.7-.4 3.4-.4 1.2.1 2.6.1 6 .1.9 0 4.7 0 8.4.1 3.7 0 7.2-.2 7.8-.6.5-.3 1-.3 1 .2 0 .9 6.7.9 7.6 0 .3-.3 1.7-.2 3 .3 1.5.6 2.4.6 2.4 0 0-.5.6-.7 1.3-.4 2.2.8 9.7 1 9.7.3 0-.4 1-.5 2.1-.2 1.9.5 2 .3 1.4-1.8-1-3-7.2-16.9-8.5-18.9-.6-.8-1.3-2.2-1.6-3-.3-.8-.9-2.2-1.4-3-.5-.8-2-3.5-3.2-6-1.3-2.5-2.5-4.7-2.8-5-.5-.5-2.4-3.7-4.4-7.5-2-3.7-9.1-14-9.8-14.3-.5-.2-.8-1-.8-1.7 0-.8-.6-2-1.3-2.7-.7-.7-4.1-5.1-7.7-9.7-13.5-17.9-31.1-36.2-46.9-49.1-2.4-1.9-5-4.1-5.7-4.8-.8-.7-1.4-1.1-1.4-.7 0 .3-1-.4-2.2-1.7-2.6-2.7-13.4-10.1-25.4-17.5-17.3-10.7-47.5-23.8-63.9-27.8-22.3-5.5-24.1-5.8-33.5-7-3-.4-6.6-.9-8-1.2-2.7-.6-47.6-1.3-48.2-.8zM575 751.6c-12.5 3-11.8 2.8-15.3 4.2-1.6.7-3.4 1.2-4 1.2-.7.1-2.3.7-3.6 1.4l-2.4 1.3 2.9.8c1.6.5 3.1.9 3.4 1 7.8 2.6 26.7 11.6 33.3 15.8 3.2 2.1 5.9 3.7 6.2 3.7.3 0 1.3.6 2.2 1.4 1 .8 5.6 4.3 10.2 7.7 8.6 6.4 24.8 21.9 31.1 29.8 1.9 2.4 4 4.9 4.7 5.6 1.8 1.9 14.3 19.4 14.3 20 0 .3.5 1.1 1 1.8 2.1 2.5 6 8.8 6 9.7 0 .6.5 1 1 1 .6 0 1 .5 1 1.1 0 .6.9 2.4 2.1 4 1.1 1.6 1.7 2.9 1.3 2.9-.4 0 0 .8.8 1.7 1.3 1.6 15.6 29.5 15.7 30.8 0 .3.7 1.8 1.4 3.3.8 1.5 2 4.4 2.7 6.5.8 2.6 1.7 3.7 2.6 3.3.7-.3 1.6-.1 1.9.4.4.6 1.3.7 2.4.1.9-.5 2.3-.6 3-.2 1.3.8 5.9.6 6.8-.3.3-.3 1.4-.1 2.4.4 1.2.7 2 .7 2.4 0 .4-.6 1.1-.7 1.7-.4 1.3.8 31.4.7 32.8-.1.5-.3 1-.2 1 .3 0 .6 1.4.7 3.5.2 1.9-.4 3.5-.4 3.5.1s1.1.4 2.5-.1c1.5-.6 2.6-.6 3 0 .4.7 1.3.7 2.4 0 1-.5 2.1-.7 2.5-.3.8.8 12.2.6 13.6-.2.5-.3 1-.2 1 .3 0 .6 1.4.7 3.5.2 1.9-.4 3.5-.4 3.5.1s1.1.4 2.5-.1c1.5-.6 2.6-.6 3 0 .4.6 1.3.7 2.4.1.9-.5 2.3-.6 3.1-.1.7.4 2.3.6 3.4.3 1.2-.2 2.7-.4 3.4-.4 1.2.1 2.8.1 6 .1.9 0 4.5 0 8 .1 3.5 0 6.5-.1 6.7-.3.9-.9-14.5-32-19.6-39.6-1.6-2.4-2.9-4.7-2.9-5.3 0-.5-.3-.9-.8-.9-.4 0-1.6-1.7-2.7-3.7s-2.4-4.1-3-4.7c-.5-.6-2.6-3.4-4.5-6.1-3.7-5.4-3.7-5.4-13.1-16.5-7.7-9.2-23-24.3-32.4-32-9.4-7.6-21-16-22.3-16-.6 0-1.2-.4-1.4-.8-.4-1.2-15.7-10-24.3-14.2-15.7-7.5-35-14.5-45.8-16.6-1-.2-2.7-.6-3.7-.9-2.3-.7-11.1-2.3-16.5-3-2.2-.3-5.6-.8-7.5-1.1-1.9-.3-11.6-.7-21.5-.9-16.4-.3-18.9-.1-28.5 2.1z"/></svg>