<?xml version="1.0" standalone="no"?>
<!DOCTYPE svg PUBLIC "-//W3C//DTD SVG 20010904//EN"
 "http://www.w3.org/TR/2001/REC-SVG-20010904/DTD/svg10.dtd">
<svg version="1.0" xmlns="http://www.w3.org/2000/svg"
 width="916.000000pt" height="916.000000pt" viewBox="0 0 916.000000 916.000000"
 preserveAspectRatio="xMidYMid meet">
<metadata>
Created by potrace 1.14, written by Peter Selinger 2001-2017
</metadata>
<g transform="translate(0.000000,916.000000) scale(0.100000,-0.100000)"
fill="#000000" stroke="none">
<path d="M4117 8830 c-9 -4 -12 -195 -12 -840 l1 -835 -43 0 c-24 0 -43 4 -43
9 0 5 -6 4 -12 -1 -7 -5 -31 -8 -53 -6 -54 4 -54 4 -103 1 -23 -2 -42 1 -42 5
0 5 -5 5 -12 1 -17 -10 -188 -11 -188 -1 0 5 -5 5 -11 2 -17 -11 -59 -13 -59
-3 0 5 -6 6 -12 1 -17 -10 -198 -10 -198 0 0 5 -5 5 -12 1 -17 -10 -188 -11
-188 -1 0 5 -5 5 -11 2 -17 -11 -59 -13 -59 -3 0 5 -6 6 -12 1 -18 -10 -198
-10 -198 1 0 5 -6 4 -12 -1 -7 -4 -47 -7 -88 -6 -96 4 -80 4 -192 0 -54 -1
-98 2 -98 7 0 5 -5 4 -12 -1 -7 -5 -28 -8 -45 -7 -18 1 -36 -2 -39 -8 -5 -7
-9 -754 -5 -845 1 -10 181 -12 809 -12 444 0 836 -1 872 -1 l66 0 -1 -1822 0
-1823 35 -5 c19 -3 44 -3 55 1 11 3 29 3 40 -1 11 -4 34 -4 52 1 18 4 35 3 38
-2 3 -4 16 -5 28 0 12 5 31 5 42 1 11 -4 34 -4 52 1 18 4 35 3 38 -2 3 -4 16
-5 28 0 12 5 31 5 42 1 11 -4 34 -4 52 1 18 4 35 3 38 -2 3 -4 16 -5 28 0 12
5 31 5 42 1 11 -4 34 -4 52 1 18 4 35 3 38 -2 3 -4 15 -5 27 0 12 4 37 5 55 1
19 -5 36 -4 39 2 3 5 11 5 19 -2 8 -6 16 -7 19 -2 3 5 17 7 31 4 28 -5 28 -12
25 218 -1 63 -1 120 -1 125 2 94 2 152 0 160 -1 6 0 15 1 20 1 6 1 71 0 145
-1 160 -1 147 0 235 1 39 0 75 -1 80 -1 6 0 15 1 20 1 6 1 71 0 145 -1 162 -1
148 0 240 1 41 0 80 -1 85 -1 6 0 15 1 20 2 12 2 286 -1 300 -1 6 0 15 1 20 2
12 2 286 -1 300 -1 6 0 15 1 20 2 12 2 286 -1 300 -1 6 0 15 1 20 2 12 2 286
-1 300 -1 6 0 15 1 20 2 12 2 286 -1 300 -1 6 0 15 1 20 2 12 2 286 -1 300 -1
6 0 15 1 20 1 6 2 61 2 123 0 97 2 112 17 112 9 0 411 1 894 1 l877 0 1 27 c3
144 0 823 -5 830 -3 5 -30 9 -61 8 -30 -1 -55 3 -55 8 0 5 -6 4 -12 -1 -7 -4
-47 -7 -88 -6 -96 4 -76 4 -218 1 -67 -2 -122 1 -122 5 0 5 -5 5 -12 1 -16
-10 -148 -11 -148 -1 0 5 -5 5 -12 1 -16 -10 -148 -11 -148 -1 0 5 -5 5 -12 1
-16 -10 -148 -11 -148 -1 0 4 -9 3 -20 -3 -14 -8 -20 -8 -20 0 0 6 -5 8 -12 4
-17 -10 -188 -11 -188 -1 0 5 -5 5 -11 2 -17 -11 -59 -13 -59 -3 0 5 -6 6 -12
1 -18 -10 -198 -10 -198 1 0 5 -6 4 -12 0 -11 -8 -75 -10 -190 -5 -27 1 -27 2
-27 74 0 39 0 77 -1 82 -2 6 -1 15 0 20 2 12 2 286 -1 300 -1 6 0 15 1 20 2
12 2 286 -1 300 -1 6 0 15 1 20 2 12 2 286 -1 300 -1 6 0 15 1 20 2 12 2 286
-1 300 -1 6 0 14 1 20 5 26 2 206 -4 212 -7 8 -881 10 -899 3z"/>
<path d="M3228 1885 c-2 -2 -28 -6 -58 -9 -30 -4 -66 -8 -80 -10 -14 -3 -46
-7 -72 -11 -64 -8 -274 -60 -361 -89 -208 -68 -491 -204 -630 -302 -26 -19
-49 -34 -52 -34 -3 0 -11 -5 -18 -10 -7 -6 -43 -34 -82 -63 -38 -28 -72 -54
-75 -57 -3 -3 -32 -27 -65 -55 -140 -116 -358 -351 -470 -505 -22 -30 -43 -56
-47 -58 -5 -2 -8 -9 -8 -15 0 -7 -9 -23 -20 -37 -24 -30 -86 -127 -129 -201
-43 -76 -152 -289 -148 -289 2 0 -6 -21 -19 -47 -21 -44 -21 -49 -6 -54 9 -4
18 -3 20 0 1 4 29 4 61 1 33 -3 71 -2 85 1 14 4 26 4 26 -1 0 -4 16 -4 35 0
19 4 35 4 35 -1 0 -5 11 -4 25 1 15 6 26 6 30 0 4 -7 13 -7 24 0 10 5 21 7 25
3 8 -8 122 -6 136 2 5 3 10 2 10 -3 0 -6 14 -7 35 -2 19 4 35 4 35 -1 0 -5 11
-4 25 1 15 6 26 6 30 0 4 -6 13 -7 24 -1 9 5 23 6 31 1 7 -4 23 -6 34 -3 12 2
27 4 34 4 12 -1 26 -1 60 -1 9 0 47 0 84 -1 37 0 72 2 78 6 5 3 10 2 10 -2 0
-9 68 -8 77 1 3 3 14 1 24 -4 12 -7 20 -7 24 0 4 6 11 7 17 4 13 -8 144 -8
158 1 5 3 10 3 10 -2 0 -9 133 -8 156 1 8 3 14 1 14 -3 0 -5 16 -5 35 -1 19 4
35 4 35 -1 0 -5 11 -4 25 1 15 6 26 6 30 0 4 -7 13 -7 24 0 10 5 21 7 25 3 8
-8 122 -6 136 2 5 3 10 2 10 -3 0 -6 14 -7 35 -2 19 4 35 4 35 -1 0 -5 11 -4
25 1 15 6 26 6 30 0 4 -6 13 -7 24 -1 9 5 23 6 31 1 7 -4 23 -6 34 -3 12 2 27
4 34 4 12 -1 26 -1 60 -1 9 0 47 0 84 -1 37 0 72 2 78 6 5 3 10 2 10 -2 0 -9
68 -8 77 1 3 3 14 1 24 -4 12 -7 20 -7 24 0 4 6 11 7 17 4 13 -8 144 -8 158 1
5 3 10 3 10 -2 0 -9 133 -8 156 1 8 3 14 1 14 -3 0 -5 16 -5 35 -1 19 4 35 4
35 -1 0 -5 11 -4 25 1 15 6 26 6 30 0 4 -7 13 -7 24 0 10 5 21 7 25 3 8 -8
122 -6 136 2 5 3 10 2 10 -3 0 -6 14 -7 35 -2 19 4 35 4 35 -1 0 -5 11 -4 25
1 15 6 26 6 30 0 4 -6 13 -7 24 -1 9 5 23 6 31 1 7 -4 23 -6 34 -3 12 2 27 4
34 4 12 -1 26 -1 60 -1 9 0 47 0 84 -1 37 0 72 2 78 6 5 3 10 2 10 -2 0 -9 68
-8 77 1 3 3 14 1 24 -4 12 -7 20 -7 24 0 4 6 11 7 17 4 13 -8 144 -8 158 1 5
3 10 3 10 -2 0 -9 133 -8 156 1 8 3 14 1 14 -3 0 -5 16 -5 35 -1 19 4 35 4 35
-1 0 -5 11 -4 25 1 15 6 26 6 30 0 4 -7 13 -7 24 0 10 5 21 7 25 3 8 -8 122
-6 136 2 5 3 10 2 10 -3 0 -6 14 -7 35 -2 19 4 35 4 35 -1 0 -5 11 -4 25 1 15
6 26 6 30 0 4 -6 13 -7 24 -1 9 5 23 6 31 1 7 -4 23 -6 34 -3 12 2 27 4 34 4
12 -1 26 -1 60 -1 9 0 47 0 84 -1 37 0 72 2 78 6 5 3 10 3 10 -2 0 -9 67 -9
76 0 3 3 17 2 30 -3 15 -6 24 -6 24 0 0 5 6 7 13 4 22 -8 97 -10 97 -3 0 4 10
5 21 2 19 -5 20 -3 14 18 -10 30 -72 169 -85 189 -6 8 -13 22 -16 30 -3 8 -9
22 -14 30 -5 8 -20 35 -32 60 -13 25 -25 47 -28 50 -5 5 -24 37 -44 75 -20 37
-91 140 -98 143 -5 2 -8 10 -8 17 0 8 -6 20 -13 27 -7 7 -41 51 -77 97 -135
179 -311 362 -469 491 -24 19 -50 41 -57 48 -8 7 -14 11 -14 7 0 -3 -10 4 -22
17 -26 27 -134 101 -254 175 -173 107 -475 238 -639 278 -223 55 -241 58 -335
70 -30 4 -66 9 -80 12 -27 6 -476 13 -482 8z"/>
<path d="M5750 1644 c-125 -30 -118 -28 -153 -42 -16 -7 -34 -12 -40 -12 -7
-1 -23 -7 -36 -14 l-24 -13 29 -8 c16 -5 31 -9 34 -10 78 -26 267 -116 333
-158 32 -21 59 -37 62 -37 3 0 13 -6 22 -14 10 -8 56 -43 102 -77 86 -64 248
-219 311 -298 19 -24 40 -49 47 -56 18 -19 143 -194 143 -200 0 -3 5 -11 10
-18 21 -25 60 -88 60 -97 0 -6 5 -10 10 -10 6 0 10 -5 10 -11 0 -6 9 -24 21
-40 11 -16 17 -29 13 -29 -4 0 0 -8 8 -17 13 -16 156 -295 157 -308 0 -3 7
-18 14 -33 8 -15 20 -44 27 -65 8 -26 17 -37 26 -33 7 3 16 1 19 -4 4 -6 13
-7 24 -1 9 5 23 6 30 2 13 -8 59 -6 68 3 3 3 14 1 24 -4 12 -7 20 -7 24 0 4 6
11 7 17 4 13 -8 314 -7 328 1 5 3 10 2 10 -3 0 -6 14 -7 35 -2 19 4 35 4 35
-1 0 -5 11 -4 25 1 15 6 26 6 30 0 4 -7 13 -7 24 0 10 5 21 7 25 3 8 -8 122
-6 136 2 5 3 10 2 10 -3 0 -6 14 -7 35 -2 19 4 35 4 35 -1 0 -5 11 -4 25 1 15
6 26 6 30 0 4 -6 13 -7 24 -1 9 5 23 6 31 1 7 -4 23 -6 34 -3 12 2 27 4 34 4
12 -1 28 -1 60 -1 9 0 45 0 80 -1 35 0 65 1 67 3 9 9 -145 320 -196 396 -16
24 -29 47 -29 53 0 5 -3 9 -8 9 -4 0 -16 17 -27 37 -11 20 -24 41 -30 47 -5 6
-26 34 -45 61 -37 54 -37 54 -131 165 -77 92 -230 243 -324 320 -94 76 -210
160 -223 160 -6 0 -12 4 -14 8 -4 12 -157 100 -243 142 -157 75 -350 145 -458
166 -10 2 -27 6 -37 9 -23 7 -111 23 -165 30 -22 3 -56 8 -75 11 -19 3 -116 7
-215 9 -164 3 -189 1 -285 -21z"/>
</g>
</svg>
