<?xml version="1.0" standalone="no"?>
<svg width="460" height="600" viewBox="0 0 460 600" xmlns="http://www.w3.org/2000/svg" xmlns:xlink="http://www.w3.org/1999/xlink">
<defs>
<path id="Main" d="M-489.29,70.7107
C-508.043,89.4639,-533.479,100,-560,100
C-586.521,100,-611.957,89.4641,-630.71,70.7107L-772.132,-70.7107
C-790.885,-89.4641,-816.321,-100,-842.843,-100
C-851.582,-100,-860.283,-98.8542,-868.725,-96.5925
C-870.986,-88.1511,-872.132,-79.4495,-872.132,-70.7107
C-872.132,-44.189,-861.596,-18.7534,-842.843,0L-772.132,70.7107
C-753.378,89.4641,-727.943,100,-701.421,100
C-674.9,100,-649.464,89.4641,-630.71,70.7107L-489.29,-70.7107
C-470.536,-89.4641,-445.1,-100,-418.579,-100
C-392.057,-100,-366.622,-89.4641,-347.868,-70.7107L-256.447,20.7107
C-237.693,39.4641,-212.258,50,-185.736,50H185.736
C212.258,50,237.693,39.4639,256.447,20.7107L347.868,-70.7107
C366.622,-89.4641,392.057,-100,418.579,-100
C445.1,-100,470.536,-89.4641,489.29,-70.7107L630.71,70.7107
C649.464,89.4641,674.9,100,701.421,100
C727.943,100,753.378,89.4641,772.132,70.7107L842.843,0
C861.596,-18.7534,872.132,-44.189,872.132,-70.7107
C872.132,-79.4495,870.986,-88.1511,868.725,-96.5925
C860.283,-98.8542,851.582,-100,842.843,-100
C816.321,-100,790.885,-89.4639,772.132,-70.7107L630.71,70.7107
C611.957,89.4641,586.521,100,560,100
C533.479,100,508.043,89.4641,489.29,70.7107L-70.7107,-489.29
C-89.4639,-508.043,-100,-533.479,-100,-560
C-100,-586.521,-89.4641,-611.957,-70.7107,-630.71L70.7107,-772.132
C89.4641,-790.885,100,-816.321,100,-842.843
C100,-869.364,89.4641,-894.8,70.7107,-913.553L-70.7107,-1054.97
C-89.4639,-1073.73,-100,-1099.16,-100,-1125.69
C-100,-1152.21,-89.4641,-1177.64,-70.7107,-1196.4L70.7107,-1337.82
C89.4641,-1356.57,100,-1382.01,100,-1408.53
C100,-1417.27,98.8542,-1425.97,96.5925,-1434.41
C88.1511,-1436.67,79.4495,-1437.82,70.7107,-1437.82
C44.189,-1437.82,18.7534,-1427.28,0,-1408.53L-70.7107,-1337.82
C-89.4641,-1319.06,-100,-1293.63,-100,-1267.11
C-100,-1240.59,-89.4641,-1215.15,-70.7107,-1196.4L70.7107,-1054.97
C89.4641,-1036.22,100,-1010.79,100,-984.264
C100,-957.742,89.4641,-932.307,70.7107,-913.553L-70.7107,-772.132
C-89.4641,-753.378,-100,-727.943,-100,-701.421
C-100,-674.9,-89.4641,-649.464,-70.7107,-630.71L70.7107,-489.29
C89.4641,-470.536,100,-445.1,100,-418.579
C100,-392.057,89.4641,-366.622,70.7107,-347.868L-20.7107,-256.447
C-39.4641,-237.693,-50,-212.258,-50,-185.736V185.736
C-50,212.258,-39.4639,237.693,-20.7107,256.447L70.7107,347.868
C89.4641,366.622,100,392.057,100,418.579
C100,445.1,89.4641,470.536,70.7107,489.29L-70.7107,630.71
C-89.4641,649.464,-100,674.9,-100,701.421
C-100,727.943,-89.4641,753.378,-70.7107,772.132L0,842.843
C18.7534,861.596,44.189,872.132,70.7107,872.132
C79.4495,872.132,88.1511,870.986,96.5925,868.725
C98.8542,860.283,100,851.582,100,842.843
C100,816.321,89.4639,790.885,70.7107,772.132L-70.7107,630.71
C-89.4641,611.957,-100,586.521,-100,560
C-100,533.479,-89.4641,508.043,-70.7107,489.29L489.29,-70.7107
C508.043,-89.4639,533.479,-100,560,-100
C586.521,-100,611.957,-89.4641,630.71,-70.7107L772.132,70.7107
C790.885,89.4641,816.321,100,842.843,100
C851.582,100,860.283,98.8542,868.725,96.5925
C870.986,88.1511,872.132,79.4495,872.132,70.7107
C872.132,44.189,861.596,18.7534,842.843,0L772.132,-70.7107
C753.378,-89.4641,727.943,-100,701.421,-100
C674.9,-100,649.464,-89.4641,630.71,-70.7107L489.29,70.7107
C470.536,89.4641,445.1,100,418.579,100
C392.057,100,366.622,89.4641,347.868,70.7107L256.447,-20.7107
C237.693,-39.4641,212.258,-50,185.736,-50H-185.736
C-212.258,-50,-237.693,-39.4639,-256.447,-20.7107L-347.868,70.7107
C-366.622,89.4641,-392.057,100,-418.579,100
C-445.1,100,-470.536,89.4641,-489.29,70.7107L-630.71,-70.7107
C-649.464,-89.4641,-674.9,-100,-701.421,-100
C-727.943,-100,-753.378,-89.4641,-772.132,-70.7107L-842.843,0
C-861.596,18.7534,-872.132,44.189,-872.132,70.7107
C-872.132,79.4495,-870.986,88.1511,-868.725,96.5925
C-860.283,98.8542,-851.582,100,-842.843,100
C-816.321,100,-790.885,89.4639,-772.132,70.7107L-630.71,-70.7107
C-611.957,-89.4641,-586.521,-100,-560,-100
C-533.479,-100,-508.043,-89.4641,-489.29,-70.7107L70.7107,489.29
C89.4639,508.043,100,533.479,100,560
C100,586.521,89.4641,611.957,70.7107,630.71L-70.7107,772.132
C-89.4641,790.885,-100,816.321,-100,842.843
C-100,851.582,-98.8542,860.283,-96.5925,868.725
C-88.1511,870.986,-79.4495,872.132,-70.7107,872.132
C-44.189,872.132,-18.7534,861.596,0,842.843L70.7107,772.132
C89.4641,753.378,100,727.943,100,701.421
C100,674.9,89.4641,649.464,70.7107,630.71L-70.7107,489.29
C-89.4641,470.536,-100,445.1,-100,418.579
C-100,392.057,-89.4641,366.622,-70.7107,347.868L20.7107,256.447
C39.4641,237.693,50,212.258,50,185.736V-185.736
C50,-212.258,39.4639,-237.693,20.7107,-256.447L-70.7107,-347.868
C-89.4641,-366.622,-100,-392.057,-100,-418.579
C-100,-445.1,-89.4641,-470.536,-70.7107,-489.29L70.7107,-630.71
C89.4641,-649.464,100,-674.9,100,-701.421
C100,-727.943,89.4641,-753.378,70.7107,-772.132L-70.7107,-913.553
C-89.4641,-932.307,-100,-957.742,-100,-984.264
C-100,-1010.79,-89.4641,-1036.22,-70.7107,-1054.97L70.7107,-1196.4
C89.4641,-1215.15,100,-1240.59,100,-1267.11
C100,-1293.63,89.4641,-1319.06,70.7107,-1337.82L0,-1408.53
C-18.7534,-1427.28,-44.189,-1437.82,-70.7107,-1437.82
C-79.4495,-1437.82,-88.1511,-1436.67,-96.5925,-1434.41
C-98.8542,-1425.97,-100,-1417.27,-100,-1408.53
C-100,-1382.01,-89.4639,-1356.57,-70.7107,-1337.82L70.7107,-1196.4
C89.4641,-1177.64,100,-1152.21,100,-1125.69
C100,-1099.16,89.4641,-1073.73,70.7107,-1054.97L-70.7107,-913.553
C-89.4641,-894.8,-100,-869.364,-100,-842.843
C-100,-816.321,-89.4639,-790.885,-70.7107,-772.132L70.7107,-630.71
C89.4641,-611.957,100,-586.521,100,-560
C100,-533.479,89.4641,-508.043,70.7107,-489.29Z"/>
<g id="Three">
  <path stroke-width="40" stroke="#000000" d="M-868.258,43.1467
C-863.583,26.8418,-854.836,11.9939,-842.843,0L-812.843,-30"/>
  <path stroke-width="24" stroke="rgb(25,212,31)" d="M-868.725,44.8286
C-864.181,27.8733,-855.255,12.4121,-842.843,0L-811.843,-31"/>
</g>
<g id="Four">
  <path stroke-width="40" stroke="#000000" d="M99.9846,561.745
C99.5325,587.658,89.0369,612.384,70.7107,630.71L40.7107,660.71
M15,575L-15,545
M-99.9846,558.255
C-99.5325,532.342,-89.0369,507.616,-70.7107,489.29L-40.7107,459.29
M99.9846,703.167
C99.5325,729.08,89.0369,753.806,70.7107,772.132L40.7107,802.132
M15,716.421L-15,686.421
M-99.9846,699.676
C-99.5325,673.763,-89.0369,649.037,-70.7107,630.71L-40.7107,600.71
M99.9846,420.324
C99.5325,446.237,89.0369,470.963,70.7107,489.29L40.7107,519.29
M15,433.579L-15,403.579
M85.7107,332.868L55.7107,362.868
M15,292.157L-15,262.157
M-99.9846,416.833
C-99.5325,390.92,-89.0369,366.194,-70.7107,347.868L-40.7107,317.868
M-99.9846,841.097
C-99.5325,815.184,-89.0369,790.458,-70.7107,772.132L-40.7107,742.132"/>
  <path stroke-width="24" stroke="rgb(25,212,31)" d="M100,560
C100,586.521,89.4641,611.957,70.7107,630.71L39.7107,661.71
M16,576L-16,544
M-100,560
C-100,533.479,-89.4641,508.043,-70.7107,489.29L-39.7107,458.29
M100,701.421
C100,727.943,89.4641,753.378,70.7107,772.132L39.7107,803.132
M16,717.421L-16,685.421
M-100,701.421
C-100,674.9,-89.4641,649.464,-70.7107,630.71L-39.7107,599.71
M100,418.579
C100,445.1,89.4641,470.536,70.7107,489.29L39.7107,520.29
M16,434.579L-16,402.579
M86.7107,331.868L54.7107,363.868
M16,293.157L-16,261.157
M-100,418.579
C-100,392.057,-89.4641,366.622,-70.7107,347.868L-39.7107,316.868
M-100,842.843
C-100,816.321,-89.4641,790.885,-70.7107,772.132L-39.7107,741.132"/>
</g>
<g id="FourTwo">
  <path stroke-width="40" stroke="#000000" d="M50,176V120
M50,-72V-28"/>
  <path stroke-width="24" stroke="rgb(25,212,31)" d="M50,-74V-26
M50,178V118"/>
</g>
</defs>
<title>Quasi-Celtic knot cross</title>
<g transform="translate(230,228.5)scale(0.252,-0.252)" stroke-linejoin="round" fill="none">
<use xlink:href="#Main" stroke-width="40" stroke="#000000"/>
<use xlink:href="#Main" stroke-width="24" stroke="rgb(25,212,31)"/>
<use xlink:href="#Three"/>
<use xlink:href="#Three" transform="rotate(270)"/>
<use xlink:href="#Three" transform="rotate(180)"/>
<use xlink:href="#Four"/>
<use xlink:href="#Four" transform="rotate(90)"/>
<use xlink:href="#Four" transform="rotate(180)"/>
<use xlink:href="#Four" transform="rotate(270)"/>
<path stroke-width="40" stroke="#000000" d="M-99.9846,-844.588
C-99.5325,-870.501,-89.0369,-895.227,-70.7107,-913.553L-40.7107,-943.553
M-99.9846,-986.009
C-99.5325,-1011.92,-89.0369,-1036.65,-70.7107,-1054.97L-40.7107,-1084.97
M-99.9846,-1127.43
C-99.5325,-1153.34,-89.0369,-1178.07,-70.7107,-1196.4L-40.7107,-1226.4
M-99.9846,-1268.85
C-99.5325,-1294.77,-89.0369,-1319.49,-70.7107,-1337.82L-40.7107,-1367.82
M-15,-857.843L15,-827.843
M-15,-999.264L15,-969.264
M-15,-1140.69L15,-1110.69
M-15,-1282.11L15,-1252.11
M99.9846,-982.519
C99.5325,-956.605,89.0369,-931.88,70.7107,-913.553L40.7107,-883.553
M99.9846,-1123.94
C99.5325,-1098.03,89.0369,-1073.3,70.7107,-1054.97L40.7107,-1024.97
M99.9846,-1265.36
C99.5325,-1239.45,89.0369,-1214.72,70.7107,-1196.4L40.7107,-1166.4
M99.9846,-1406.78
C99.5325,-1380.87,89.0369,-1356.14,70.7107,-1337.82L40.7107,-1307.82
M-43.1467,-1433.94
C-26.8418,-1429.27,-11.9939,-1420.52,0,-1408.53L30,-1378.53"/>
<path stroke-width="24" stroke="rgb(25,212,31)" d="M-100,-842.843
C-100,-869.364,-89.4641,-894.8,-70.7107,-913.553L-39.7107,-944.553
M-100,-984.264
C-100,-1010.79,-89.4641,-1036.22,-70.7107,-1054.97L-39.7107,-1085.97
M-100,-1125.69
C-100,-1152.21,-89.4641,-1177.64,-70.7107,-1196.4L-39.7107,-1227.4
M-100,-1267.11
C-100,-1293.63,-89.4641,-1319.06,-70.7107,-1337.82L-39.7107,-1368.82
M-16,-858.843L16,-826.843
M-16,-1000.26L16,-968.264
M-16,-1141.69L16,-1109.69
M-16,-1283.11L16,-1251.11
M100,-984.264
C100,-957.742,89.4641,-932.307,70.7107,-913.553L39.7107,-882.553
M100,-1125.69
C100,-1099.16,89.4641,-1073.73,70.7107,-1054.97L39.7107,-1023.97
M100,-1267.11
C100,-1240.59,89.4641,-1215.15,70.7107,-1196.4L39.7107,-1165.4
M100,-1408.53
C100,-1382.01,89.4641,-1356.57,70.7107,-1337.82L39.7107,-1306.82
M-44.8286,-1434.41
C-27.8733,-1429.87,-12.4121,-1420.94,0,-1408.53L31,-1377.53"/>
<circle r="160" stroke-width="40" stroke="#000000"/>
<circle r="160" stroke-width="24" stroke="rgb(25,212,31)"/>
<use xlink:href="#FourTwo"/>
<use xlink:href="#FourTwo" transform="rotate(90)"/>
<use xlink:href="#FourTwo" transform="rotate(180)"/>
<use xlink:href="#FourTwo" transform="rotate(270)"/>
</g>
</svg>
