<svg width="460" height="600" xmlns="http://www.w3.org/2000/svg" xmlns:xlink="http://www.w3.org/1999/xlink"><defs><g id="b"><path stroke-width="40" stroke="#000" d="M-868.258 43.147A100.005 100.005 0 01-842.843 0l30-30"/><path stroke-width="24" stroke="#19D41F" d="M-868.725 44.829A100.01 100.01 0 01-842.843 0l31-31"/></g><g id="c"><path stroke-width="40" stroke="#000" d="M99.985 561.745A99.999 99.999 0 0170.71 630.71l-30 30M15 575l-30-30m-84.985 13.255A99.999 99.999 0 01-70.71 489.29l30-30M99.985 703.167a99.999 99.999 0 01-29.274 68.965l-30 30M15 716.421l-30-30m-84.985 13.255A100.003 100.003 0 01-70.71 630.71l30-30M99.985 420.324A100.003 100.003 0 0170.71 489.29l-30 30M15 433.579l-30-30m100.71-70.711l-30 30M15 292.157l-30-30m-84.985 154.676a99.999 99.999 0 0129.274-68.965l30-30m-59.274 523.229a99.999 99.999 0 0129.274-68.965l30-30"/><path stroke-width="24" stroke="#19D41F" d="M100 560a100 100 0 01-29.29 70.71l-31 31M16 576l-32-32m-84 16a100 100 0 0129.29-70.71l31-31M100 701.421a100.002 100.002 0 01-29.29 70.711l-31 31M16 717.421l-32-32m-84 16a100.003 100.003 0 0129.29-70.711l31-31M100 418.579a100.003 100.003 0 01-29.29 70.711l-31 31M16 434.579l-32-32m102.71-70.711l-32 32M16 293.157l-32-32m-84 157.422a100.002 100.002 0 0129.29-70.711l31-31M-100 842.843a100 100 0 0129.29-70.711l31-31"/></g><g id="d"><path stroke-width="40" stroke="#000" d="M50 176v-56m0-192v44"/><path stroke-width="24" stroke="#19D41F" d="M50-74v48m0 204v-60"/></g><path id="a" d="M-489.29 70.71a100 100 0 01-141.42 0L-772.132-70.71a100 100 0 00-96.593-25.883A100.002 100.002 0 00-842.843 0l70.711 70.71a100.002 100.002 0 00141.422 0l141.42-141.42a100.003 100.003 0 01141.422 0l91.421 91.42A100.002 100.002 0 00-185.736 50h371.472a100.003 100.003 0 0070.711-29.29l91.421-91.42a100.002 100.002 0 01141.422 0L630.71 70.71a100.003 100.003 0 00141.422 0L842.843 0a100.002 100.002 0 0025.882-96.593 100 100 0 00-96.593 25.882L630.71 70.711a100 100 0 01-141.42 0l-560-560.001a100 100 0 010-141.42L70.71-772.132a100 100 0 000-141.421L-70.71-1054.97a100.013 100.013 0 010-141.43l141.42-141.42a99.996 99.996 0 0025.883-96.59 100.084 100.084 0 00-25.882-3.41A100.015 100.015 0 000-1408.53l-70.71 70.71a99.996 99.996 0 000 141.42l141.42 141.43A99.976 99.976 0 01100-984.264a100.002 100.002 0 01-29.29 70.711L-70.71-772.132a100.002 100.002 0 000 141.422L70.71-489.29a100.003 100.003 0 010 141.422l-91.42 91.421A100.002 100.002 0 00-50-185.736v371.472a100.003 100.003 0 0029.29 70.711l91.42 91.421a100.002 100.002 0 010 141.422L-70.71 630.71a100.003 100.003 0 000 141.422L0 842.843a100.002 100.002 0 0096.593 25.882 100 100 0 00-25.882-96.593L-70.711 630.71a100 100 0 010-141.42l560.001-560a100 100 0 01141.42 0L772.132 70.71a100 100 0 0096.593 25.883A100.002 100.002 0 00842.843 0l-70.711-70.71a100.002 100.002 0 00-141.422 0L489.29 70.71a100.003 100.003 0 01-141.422 0l-91.421-91.42A100.002 100.002 0 00185.736-50h-371.472a100.003 100.003 0 00-70.711 29.29l-91.421 91.42a100.002 100.002 0 01-141.422 0L-630.71-70.71a100.003 100.003 0 00-141.422 0L-842.843 0a100.002 100.002 0 00-25.882 96.593 100 100 0 0096.593-25.882L-630.71-70.711a100 100 0 01141.42 0l560 560.001a100 100 0 010 141.42L-70.71 772.132a100 100 0 00-25.883 96.593A100.002 100.002 0 000 842.843l70.71-70.711a100.002 100.002 0 000-141.422L-70.71 489.29a100.003 100.003 0 010-141.422l91.42-91.421A100.002 100.002 0 0050 185.736v-371.472a100.003 100.003 0 00-29.29-70.711l-91.42-91.421a100.002 100.002 0 010-141.422L70.71-630.71a100.003 100.003 0 000-141.422L-70.71-913.553A100.002 100.002 0 01-100-984.264a99.976 99.976 0 0129.29-70.706L70.71-1196.4a99.996 99.996 0 000-141.42L0-1408.53a100.015 100.015 0 00-70.71-29.29c-8.74 0-17.441 1.15-25.883 3.41a99.997 99.997 0 0025.882 96.59L70.711-1196.4a100.013 100.013 0 010 141.43L-70.711-913.553a100 100 0 000 141.421L70.711-630.71a100 100 0 010 141.42z"/></defs><g transform="matrix(.252 0 0 -.252 230 228.5)" stroke-linejoin="round" fill="none"><use xlink:href="#a" stroke-width="40" stroke="#000"/><use xlink:href="#a" stroke-width="24" stroke="#19D41F"/><use xlink:href="#b"/><use xlink:href="#b" transform="rotate(270)"/><use xlink:href="#b" transform="rotate(180)"/><use xlink:href="#c"/><use xlink:href="#c" transform="rotate(90)"/><use xlink:href="#c" transform="rotate(180)"/><use xlink:href="#c" transform="rotate(270)"/><path stroke-width="40" stroke="#000" d="M-99.985-844.588a99.999 99.999 0 0129.274-68.965l30-30m-59.274-42.456a99.982 99.982 0 0129.274-68.961l30-30m-59.274-42.46a100.024 100.024 0 0129.274-68.97l30-30m-59.274-42.45a100.005 100.005 0 0129.274-68.97l30-30M-15-857.843l30 30m-30-171.421l30 30m-30-171.426l30 30m-30-171.42l30 30m84.985 269.591a100.001 100.001 0 01-29.274 68.966l-30 30m59.274-240.387a100.024 100.024 0 01-29.274 68.97l-30 30m59.274-240.39a99.981 99.981 0 01-29.274 68.96l-30 30m59.274-240.38a99.981 99.981 0 01-29.274 68.96l-30 30m-83.858-126.12A99.975 99.975 0 010-1408.53l30 30"/><path stroke-width="24" stroke="#19D41F" d="M-100-842.843a100 100 0 0129.29-70.71l31-31M-100-984.264a99.976 99.976 0 0129.29-70.706l31-31m-60.29-39.72c0-26.52 10.536-51.95 29.29-70.71l31-31m-60.29-39.71c0-26.52 10.536-51.95 29.29-70.71l31-31M-16-858.843l32 32m-32-173.417l32 31.996m-32-173.426l32 32m-32-173.42l32 32m84 266.846a100.002 100.002 0 01-29.29 70.711l-31 31M100-1125.69a100.02 100.02 0 01-29.29 70.72l-31 31M100-1267.11a99.996 99.996 0 01-29.29 70.71l-31 31M100-1408.53a99.996 99.996 0 01-29.29 70.71l-31 31m-84.539-127.59A99.988 99.988 0 010-1408.53l31 31"/><circle r="160" stroke-width="40" stroke="#000"/><circle r="160" stroke-width="24" stroke="#19D41F"/><use xlink:href="#d"/><use xlink:href="#d" transform="rotate(90)"/><use xlink:href="#d" transform="rotate(180)"/><use xlink:href="#d" transform="rotate(270)"/></g></svg>