<svg width="600" height="600" xmlns="http://www.w3.org/2000/svg"><g fill="none" stroke="#000"><path stroke-width="30.497" d="M144.735 573.809a156.013 156.013 0 0033.767 3.698c86.16 0 156.008-69.848 156.008-156.01 0-86.16-69.847-156.008-156.008-156.008-86.161 0-156.01 69.847-156.01 156.009 0 11.356 1.24 22.68 3.699 33.766m547.618 0a155.984 155.984 0 003.698-33.766c0-86.162-69.848-156.01-156.009-156.01-86.161 0-156.009 69.848-156.009 156.01 0 86.16 69.848 156.009 156.01 156.009 11.356 0 22.679-1.24 33.766-3.698m0-547.619a156.02 156.02 0 00-33.767-3.698c-86.161 0-156.009 69.847-156.009 156.01 0 86.16 69.848 156.008 156.01 156.008 86.16 0 156.008-69.848 156.008-156.009a156 156 0 00-3.698-33.766m-547.618 0a156.013 156.013 0 00-3.698 33.766c0 86.161 69.848 156.009 156.009 156.009 86.16 0 156.008-69.848 156.008-156.009 0-86.162-69.847-156.01-156.008-156.01a156.02 156.02 0 00-33.767 3.699m304.053 558.836C428.314 520.09 368.09 475.93 300 475.93c-68.09 0-128.314 44.159-148.788 109.096M14.973 448.788c64.938-20.475 109.097-80.7 109.097-148.789 0-68.089-44.16-128.313-109.097-148.788m570.054 0C520.089 171.686 475.93 231.911 475.93 300c0 68.09 44.16 128.314 109.097 148.789M151.212 14.972C171.686 79.91 231.91 124.068 300 124.068c68.09 0 128.314-44.158 148.788-109.096"/><path stroke-width="7.624" d="M135.898 583.432c2.581.68 5.179 1.297 7.79 1.852M14.715 456.31a167.542 167.542 0 001.852 7.79m566.866 0a166.265 166.265 0 001.851-7.79M456.312 585.284c2.61-.555 5.208-1.173 7.79-1.852m0-566.866a168.605 168.605 0 00-7.79-1.851m128.972 128.972a166.913 166.913 0 00-1.851-7.79m-566.866 0a167.575 167.575 0 00-1.852 7.79M143.688 14.715a167.532 167.532 0 00-7.79 1.851m325.644 571.302a168.341 168.341 0 00-2.292-7.673m-318.5 0a167.515 167.515 0 00-2.291 7.672M12.132 461.541a167.544 167.544 0 007.672-2.292m0-318.5a166.822 166.822 0 00-7.672-2.291m575.737 0a166.797 166.797 0 00-7.673 2.292m0 318.5c2.538.824 5.097 1.588 7.672 2.29M138.458 12.132a167.495 167.495 0 002.292 7.672m318.5 0a167.495 167.495 0 002.291-7.672"/><path stroke-width="2.91" d="M135.155 585.674c.525.139 1.052.275 1.578.409M13.917 463.266c.133.527.27 1.052.408 1.578m571.35 0c.138-.526.275-1.051.408-1.578M463.267 586.083c.526-.134 1.052-.27 1.578-.409m0-571.35c-.525-.138-1.052-.275-1.578-.408m122.816 122.816c-.133-.526-.27-1.052-.408-1.577m-571.35 0c-.138.525-.275 1.051-.408 1.577M136.733 13.916c-.526.133-1.053.27-1.578.408M463.854 587.39a165.29 165.29 0 00-.435-1.57m-326.838 0c-.147.522-.293 1.045-.435 1.57M12.61 463.852c.524-.142 1.047-.287 1.57-.434m0-326.839a165.37 165.37 0 00-1.57-.435m574.78 0c-.523.142-1.047.287-1.57.435m0 326.839c.522.147 1.046.292 1.57.434M136.145 12.608c.143.525.289 1.049.436 1.571m326.838 0c.147-.522.293-1.046.435-1.57"/><g stroke="#fff"><path stroke-width="15.248" d="M152.753 575.367a156.011 156.011 0 0025.749 2.14c86.16 0 156.008-69.848 156.008-156.01 0-86.16-69.847-156.008-156.008-156.008-86.161 0-156.01 69.847-156.01 156.009 0 8.627.716 17.24 2.14 25.749m550.735 0a155.985 155.985 0 002.14-25.75c0-86.16-69.848-156.008-156.009-156.008-86.161 0-156.009 69.847-156.009 156.009 0 86.16 69.848 156.009 156.01 156.009 8.626 0 17.24-.716 25.748-2.14m0-550.736a156.048 156.048 0 00-25.749-2.14c-86.161 0-156.009 69.848-156.009 156.01 0 86.161 69.848 156.009 156.01 156.009 86.16 0 156.008-69.848 156.008-156.009 0-8.627-.715-17.24-2.14-25.749m-550.735 0a156.011 156.011 0 00-2.14 25.75c0 86.16 69.849 156.008 156.01 156.008 86.16 0 156.008-69.848 156.008-156.009 0-86.162-69.847-156.01-156.008-156.01-8.628 0-17.24.717-25.75 2.14M446.13 577.303C423.335 516.338 365.087 475.93 300 475.93c-65.087 0-123.335 40.408-146.13 101.373M22.697 446.13C83.662 423.336 124.071 365.088 124.071 300c0-65.087-40.409-123.335-101.374-146.129m554.608 0C516.339 176.664 475.93 234.912 475.93 300c0 65.087 40.409 123.335 101.374 146.129M153.87 22.695C176.665 83.661 234.913 124.068 300 124.068c65.087 0 123.335-40.407 146.13-101.373"/><path stroke-width="7.624" d="M146.064 577.992c2.468.512 4.947.965 7.436 1.359M20.648 446.499c.394 2.489.848 4.968 1.359 7.435m555.986 0c.511-2.467.964-4.946 1.359-7.435M446.5 579.351c2.489-.394 4.968-.847 7.435-1.359m0-555.985a159.37 159.37 0 00-7.435-1.36M579.352 153.5a160.277 160.277 0 00-1.36-7.436m-555.985 0a159.622 159.622 0 00-1.359 7.436M153.5 20.648a160.25 160.25 0 00-7.436 1.358m305.683 559.777a159.675 159.675 0 00-2.541-7.119m-298.412 0a159.725 159.725 0 00-2.541 7.119M18.216 451.746a158.96 158.96 0 007.12-2.541m0-298.412a160.428 160.428 0 00-7.12-2.54m563.568 0a160.42 160.42 0 00-7.119 2.54m0 298.412a158.93 158.93 0 007.118 2.541m-433.53-433.53c.79 2.392 1.638 4.766 2.541 7.118m298.412 0a158.93 158.93 0 002.54-7.118"/><path stroke-width="1.018" d="M144.53 581.048c.66.14 1.32.277 1.98.409M18.543 453.489c.132.66.268 1.32.408 1.98m562.097 0c.14-.66.277-1.32.41-1.98M453.49 581.457c.66-.132 1.32-.269 1.98-.409m0-562.097c-.659-.14-1.32-.277-1.98-.41M581.458 146.51a163.52 163.52 0 00-.41-1.98m-562.097 0c-.14.658-.276 1.319-.408 1.98M146.51 18.541a163.5 163.5 0 00-1.98.408m310.63 562.634c-.208-.64-.42-1.28-.636-1.919m-309.048 0a159.45 159.45 0 00-.636 1.918M18.416 455.16c.64-.207 1.28-.42 1.919-.636m0-309.048c-.639-.216-1.278-.428-1.92-.636m563.17 0c-.64.208-1.281.42-1.919.636m0 309.048c.637.216 1.277.429 1.918.636M144.84 18.414c.209.641.42 1.28.637 1.92m309.048 0c.216-.639.428-1.278.636-1.919"/></g><path stroke-width="30.497" d="M291.835 476.144a155.954 155.954 0 00-29.577 4.42m55.249 11.76a155.99 155.99 0 0010.96-27.825m-37.809 41.967a156.008 156.008 0 0018.617 23.405m-185.42-238.036a156 156 0 00-4.42-29.578m-11.76 55.249a155.99 155.99 0 0027.825 10.96m-41.967-37.808a156.015 156.015 0 00-23.404 18.616m406.016-1.11a155.954 155.954 0 004.42 29.578m11.76-55.25a155.992 155.992 0 00-27.825-10.96m41.967 37.81a156.011 156.011 0 0023.404-18.618m-221.706-166.87a156 156 0 0029.577-4.42m-55.249-11.76a155.992 155.992 0 00-10.96 27.825m37.809-41.966a156.015 156.015 0 00-18.617-23.405m18.93 242.605a156.022 156.022 0 00-20.46 26.092m-1.93-29.171a156.022 156.022 0 00-26.091-20.46m51.56 1.151a156.048 156.048 0 0026.092 20.46m-48.48-23.54a156.052 156.052 0 0020.459-26.092"/><path stroke-width="15.248" stroke="#fff" d="M294.555 476.025a156.02 156.02 0 00-34.933 5.22m56.627 13.495a156.03 156.03 0 0012.946-32.864m-40 42.294a156.023 156.023 0 0021.988 27.642M123.974 294.555a155.987 155.987 0 00-5.22-34.934M105.26 316.25a156.005 156.005 0 0032.864 12.945m-42.294-40a155.974 155.974 0 00-27.644 21.989m407.84-5.739a156.03 156.03 0 005.22 34.933m13.494-56.627a156.03 156.03 0 00-32.864-12.945m42.294 40a156 156 0 0027.643-21.99M305.445 123.975a156.03 156.03 0 0034.933-5.221m-56.627-13.494a156.005 156.005 0 00-12.946 32.864m40-42.294a156.02 156.02 0 00-21.989-27.643m22.754 242.612a156.025 156.025 0 00-23.798 30.349m1.43-29.578a155.982 155.982 0 00-30.35-23.797m51.946.658a156 156 0 0030.35 23.797M288.43 289.2a156.026 156.026 0 0023.797-30.35"/></g></svg>