<svg height="512" width="512" xmlns="http://www.w3.org/2000/svg" data-name="Layer 1"><path d="M204.849 160.2H229.9v61.413a6 6 0 006 6h24.415a6 6 0 006-6V160.2h25.053a6 6 0 006-6v-24.418a6 6 0 00-6-6h-25.052V94.055a6 6 0 00-6-6H235.9a6 6 0 00-6 6v29.727h-25.051a6 6 0 00-6 6V154.2a6 6 0 006 6zm6-24.416H235.9a6 6 0 006-6v-29.729h12.415v29.727a6 6 0 006 6h25.053V148.2h-25.052a6 6 0 00-6 6v61.413H241.9V154.2a6 6 0 00-6-6h-25.051zm19.834 315.185a6 6 0 00-6 6v16.265a6 6 0 0012 0v-16.265a6 6 0 00-6-6zm-34.854 0a6 6 0 00-6 6v16.265a6 6 0 0012 0v-16.265a6 6 0 00-6-6zm-34.852 0a6 6 0 00-6 6v16.265a6 6 0 0012 0v-16.265a6 6 0 00-6-6zm-34.854 0a6 6 0 00-6 6v16.265a6 6 0 1012 0v-16.265a6 6 0 00-6-6zm-34.853 0a6 6 0 00-6 6v16.265a6 6 0 1012 0v-16.265a6 6 0 00-6-6zm209.119 0a6 6 0 00-6 6v16.265a6 6 0 1012 0v-16.265a6 6 0 00-6-6zm-34.853 0a6 6 0 00-6 6v16.265a6 6 0 0012 0v-16.265a6 6 0 00-6-6zm69.706 0a6 6 0 00-6 6v16.265a6 6 0 0012 0v-16.265a6 6 0 00-6-6zM178.565 280.946h54.146a6 6 0 000-12h-54.146a6 6 0 000 12zm139.088 15.883H178.565a6 6 0 000 12h139.088a6 6 0 000-12zm0 27.882H178.565a6 6 0 000 12h139.088a6 6 0 000-12zM137.457 145.554a6 6 0 00-6 6v7.151a6 6 0 1012 0v-7.151a6 6 0 00-6-6zm0 27.112a6 6 0 00-6 6v167.885a6 6 0 0012 0V178.666a6 6 0 00-6-6z"/><path d="M16.417 507.116H479.8a6 6 0 000-12H468c-1.57-9.848-4.036-36.919 10.821-59.387 4.3-6.494 11.681-13.221 17.615-18.626 1.141-1.039 2.225-2.026 3.224-2.954a6 6 0 00-4.529-10.38 77.765 77.765 0 00-30.407 10.1c4.335-12.293 10.69-24.234 22.853-41.365a6 6 0 00-6.9-9.127c-.754.269-18.675 6.771-36.174 23.981-.646.635-1.3 1.3-1.949 1.972-1.052-18.454-4.108-45.448-7.8-58.242a6 6 0 00-10.783-1.623c-6.593 10.063-17.094 32.727-18.639 57.786a120.004 120.004 0 00-7.384-7.261V154.723A149.845 149.845 0 00248.109 4.884c-82.621 0-149.838 67.216-149.838 149.839v220.46h-22a6 6 0 00-6 6v43.065H56.417a6 6 0 00-6 6v64.868h-34a6 6 0 000 12zm341.181-12a5.321 5.321 0 011.682-3.47c1.459-1.278 3.5-1.1 6.05.528a6.278 6.278 0 004.064.949 6 6 0 005.5-4.836 17.2 17.2 0 013.006-6.879 17.428 17.428 0 0130.965 5.923 6 6 0 006.735 4.442 8.993 8.993 0 011.361-.1 8.684 8.684 0 016.918 3.445zm17.625-69.379a74.625 74.625 0 00-8.354-10.188 66.51 66.51 0 0110.21 4.087 55.093 55.093 0 0111.213 7.442 6.027 6.027 0 001.03.878c10.09 9.153 15.854 21.915 17.2 38.124a29.384 29.384 0 00-14.534-3.838c-.348 0-.694.018-1.041.031a127.888 127.888 0 00-15.724-36.536zm98.783-3.357a64.739 64.739 0 00-5.189 6.73c-15.545 23.51-15.063 51.876-13.044 66.006h-12.131a126.627 126.627 0 01-1-13.442c-.942-35.107 16.236-51.593 31.364-59.294zm-33.258-12.013a5.944 5.944 0 001.528-2.154 99.86 99.86 0 0110.285-11.946 103.431 103.431 0 0111.891-10.131C455.97 400.9 451.891 412.8 448.4 427.122c-10.15 11.343-18.453 28.664-17.75 54.875q.042 1.512.1 2.959a20.726 20.726 0 00-6.92-4.091l-.293-4.8q-1.058-23.328 5.642-42.747a6.014 6.014 0 00.82-2.29 94.391 94.391 0 0110.749-20.661zm-14.219-59.952c3.176 20.446 4.575 46.719 4.435 53.115a108.207 108.207 0 00-6.709 11.211 109.833 109.833 0 00-6.509-11.569c-2.326-18.583 2.662-38.314 8.783-52.757zm-8.84 79.749a115.165 115.165 0 00-3.713 13.8 62.136 62.136 0 00-15.919-24.237 124.731 124.731 0 00-14.685-36.2c12.205 9.473 26.494 24.548 34.317 46.637zM110.271 154.723c0-76.005 61.833-137.839 137.838-137.839a137.845 137.845 0 01137.838 137.839V370.43A104.569 104.569 0 00366 359.2a6 6 0 00-7.083 9.06 487.97 487.97 0 014.828 6.92H110.271zm-28 232.46h289.286a118.9 118.9 0 0110.753 21.654 82.408 82.408 0 00-33.871-8.458 6 6 0 00-4.065 10.4c1 .929 2.084 1.916 3.225 2.955 3.467 3.158 7.426 6.768 10.978 10.518H82.273zm-19.854 49.065H367.6a119.158 119.158 0 0111.7 28.9 29.372 29.372 0 00-14.019 14.152 15.174 15.174 0 00-13.91 3.326 17.344 17.344 0 00-5.776 12.494H62.417z"/></svg>