<svg height="512" width="512" xmlns="http://www.w3.org/2000/svg"><path d="M10 446h492v56H10z" fill="#aebdcc"/><path d="M37 398h438v48H37z" fill="#e4e9ee"/><path d="M355.425 64c-9.72 0-18.702-4.992-24.015-13.132C315.349 26.263 287.575 10 256 10s-59.349 16.263-75.41 40.868C175.277 59.008 166.295 64 156.575 64h-44.037C96.777 64 84 76.777 84 92.539V398h344V92.539C428 76.777 415.223 64 399.461 64z" fill="#93a7bb"/><path d="M388 398V104h-32.575c-23.231 0-44.731-11.689-57.511-31.269C288.623 58.499 272.954 50 256 50s-32.623 8.498-41.914 22.732C201.305 92.312 179.806 104 156.575 104H124v294z" fill="#aebdcc"/><circle cx="256" cy="175.506" fill="#fff" r="42.751"/><path d="M277.933 358.553c20.061 2.915 28.072 27.569 13.555 41.719 3.427 19.98-17.545 35.217-35.488 25.784-17.943 9.433-38.915-5.803-35.488-25.784-14.516-14.15-6.506-38.803 13.555-41.719 8.972-18.179 34.894-18.179 43.866 0z" fill="#e67e95"/><path d="M320.847 431.618c20.061 2.915 28.072 27.569 13.555 41.719 3.427 19.98-17.545 35.217-35.488 25.784-17.943 9.433-38.915-5.803-35.488-25.784-14.516-14.15-6.506-38.803 13.555-41.719 8.972-18.178 34.894-18.178 43.866 0z" fill="#f2beca"/><path d="M235.019 431.618c20.061 2.915 28.072 27.569 13.555 41.719 3.427 19.98-17.545 35.217-35.488 25.784-17.943 9.433-38.915-5.803-35.488-25.784-14.516-14.15-6.506-38.803 13.555-41.719 8.973-18.178 34.895-18.178 43.866 0z" fill="#f2beca"/><path d="M349.713 365.365h-20.706c-17.586 0-31.843 14.257-31.843 31.843v20.706h20.706c17.586 0 31.843-14.257 31.843-31.843zm-187.426 0h20.706c17.586 0 31.843 14.257 31.843 31.843v20.706H194.13c-17.586 0-31.843-14.257-31.843-31.843z" fill="#b8e5a8"/><path d="M256 228.257c29.087 0 52.751-23.664 52.751-52.751S285.087 122.755 256 122.755s-52.751 23.664-52.751 52.751 23.664 52.751 52.751 52.751zm0-85.502c18.059 0 32.751 14.692 32.751 32.751S274.059 208.257 256 208.257s-32.751-14.692-32.751-32.751 14.692-32.751 32.751-32.751zm-58 133.373h116c5.522 0 10-4.477 10-10s-4.478-10-10-10H198c-5.523 0-10 4.477-10 10s4.477 10 10 10zm93.434 24h-70.867c-5.523 0-10 4.477-10 10s4.477 10 10 10h70.867c5.522 0 10-4.477 10-10s-4.478-10-10-10z"/><path d="M502 436h-17v-38c0-5.523-4.478-10-10-10h-37V92.539C438 71.289 420.712 54 399.461 54h-44.036c-6.279 0-12.127-3.214-15.641-8.598C321.226 16.973 289.905 0 256 0s-65.226 16.973-83.784 45.402C168.702 50.786 162.855 54 156.575 54h-44.037C91.289 54 74 71.289 74 92.539V388H37c-5.523 0-10 4.477-10 10v38H10c-5.523 0-10 4.477-10 10v56c0 5.523 4.477 10 10 10h492c5.522 0 10-4.477 10-10v-56c0-5.523-4.478-10-10-10zm-37 0H345.537a34.06 34.06 0 00-12.575-10.913A42.068 42.068 0 00353.488 408H465zm-140.454 39.027c.952 5.547-1.198 10.833-5.752 14.141-4.552 3.308-10.245 3.721-15.227 1.101a10.005 10.005 0 00-9.306 0c-4.983 2.62-10.675 2.208-15.227-1.101-4.554-3.308-6.704-8.594-5.752-14.141a10.002 10.002 0 00-2.876-8.851c-4.03-3.928-5.397-9.469-3.658-14.822 1.738-5.353 6.102-9.031 11.671-9.84a10 10 0 007.53-5.47c2.49-5.047 7.337-8.06 12.965-8.06s10.475 3.013 12.965 8.06a10 10 0 007.53 5.47c5.569.81 9.933 4.488 11.672 9.841 1.739 5.352.371 10.893-3.659 14.821a10 10 0 00-2.876 8.851zm-6.676-67.113h-10.706v-10.707c0-12.044 9.799-21.843 21.843-21.843h10.707v10.706c0 12.045-9.799 21.844-21.844 21.844zm-33.362-14.803a10.002 10.002 0 00-2.876 8.851c.952 5.547-1.198 10.833-5.752 14.141-4.551 3.308-10.242 3.72-15.227 1.101a9.998 9.998 0 00-9.307 0c-4.982 2.619-10.674 2.208-15.227-1.101-4.553-3.308-6.703-8.594-5.752-14.141a9.997 9.997 0 00-2.876-8.851c-4.03-3.929-5.398-9.47-3.659-14.822 1.739-5.353 6.103-9.031 11.672-9.84a9.998 9.998 0 007.529-5.47c2.491-5.047 7.337-8.06 12.965-8.06s10.475 3.013 12.965 8.06a10 10 0 007.53 5.47c5.569.81 9.933 4.488 11.672 9.84s.373 10.893-3.657 14.822zm-79.672 4.097v10.707h-10.707c-12.044 0-21.843-9.799-21.843-21.843v-10.706h10.706c12.045-.001 21.844 9.798 21.844 21.842zm-23.916 54.146c1.739-5.353 6.103-9.031 11.672-9.84a9.998 9.998 0 007.529-5.47c2.491-5.047 7.338-8.06 12.965-8.06 5.628 0 10.475 3.013 12.966 8.06a10 10 0 007.529 5.47c5.569.809 9.932 4.488 11.671 9.84s.372 10.894-3.658 14.822a9.997 9.997 0 00-2.876 8.851c.951 5.547-1.199 10.833-5.752 14.141s-10.246 3.72-15.227 1.101a10.004 10.004 0 00-9.307 0c-4.981 2.62-10.673 2.208-15.227-1.101-4.553-3.308-6.703-8.594-5.752-14.141a10 10 0 00-2.876-8.852c-4.028-3.927-5.396-9.468-3.657-14.821zM94 92.539C94 82.316 102.316 74 112.539 74h44.037c13.06 0 25.168-6.604 32.389-17.666C203.815 33.583 228.875 20 256 20c27.124 0 52.185 13.583 67.036 36.334C330.256 67.396 342.364 74 355.425 74h44.036C409.684 74 418 82.316 418 92.539V388h-20V104c0-5.523-4.478-10-10-10h-32.575c-19.842 0-38.21-9.994-49.137-26.735C295.144 50.192 276.344 40 256 40s-39.144 10.193-50.288 27.266C194.785 84.006 176.416 94 156.575 94H124c-5.523 0-10 4.477-10 10v107.063c0 5.523 4.477 10 10 10s10-4.477 10-10V114h22.575c26.621 0 51.251-13.384 65.885-35.802C229.898 66.803 242.437 60 256 60s26.102 6.803 33.54 18.197C304.173 100.616 328.803 114 355.425 114H378v274h-18.335c.029-.64.049-22.635.049-22.635 0-5.523-4.478-10-10-10h-20.707c-9.632 0-18.506 3.28-25.586 8.769a34.116 34.116 0 00-19.091-14.387c-6.374-9.255-16.832-14.829-28.33-14.829s-21.956 5.573-28.331 14.829a34.114 34.114 0 00-19.09 14.387c-7.08-5.49-15.955-8.769-25.587-8.769h-20.706c-5.523 0-10 4.477-10 10 0 0 .02 21.995.049 22.635H134v-86.937c0-5.523-4.477-10-10-10s-10 4.477-10 10V388H94zM47 408h111.512a42.072 42.072 0 0020.526 17.087A34.069 34.069 0 00166.463 436H47zm-27 48h140.198a34.118 34.118 0 007.049 20.701A34.163 34.163 0 00170.434 492H20zm472 36H341.567a34.166 34.166 0 003.187-15.299A34.124 34.124 0 00351.803 456H492z"/><circle cx="124" cy="256.128" r="10"/><circle cx="213.09" cy="461.907" r="10"/><circle cx="298.915" cy="461.907" r="10"/><circle cx="256.013" cy="388.842" r="10"/></svg>