<svg height="512" viewBox="0 0 64 64" width="512" xmlns="http://www.w3.org/2000/svg"><g data-name="Fill Outline"><path d="M3 29h16v8H3zm0 16h16v8H3zm10-8h16v8H13zm0 16h16v8H13zm6-24h16v8H19zm0 16h16v8H19zm10-8h16v8H29zm0 16h16v8H29zm6-24h16v8H35zm0 16h16v8H35zm10-8h16v8H45zm0 16h16v8H45zM3 37h10v8H3zm0 16h10v8H3zm48-8h10v8H51z" fill="#f8664f"/><g fill="#cc5144"><path d="M52 57a4 4 0 01-4-4h-3v8h16v-4zm-10-8a4 4 0 01-4-4h-3v8h16v-4zm-16 0a4 4 0 01-4-4h-3v8h16v-4zm-16 0a4 4 0 01-4-4H3v8h16v-4zm26 8a4 4 0 01-4-4h-3v8h16v-4zm-16 0a4 4 0 01-4-4h-3v8h16v-4zm-10 0a4 4 0 01-4-4H3v8h10v-4zm42-16a4 4 0 01-4-4h-3v8h16v-4zm-16 0a4 4 0 01-4-4h-3v8h16v-4zm-16 0a4 4 0 01-4-4h-3v8h16v-4zm22-8a4 4 0 01-4-4h-3v8h16v-4zm-16 0a4 4 0 01-4-4h-3v8h16v-4zm-16 0a4 4 0 01-4-4H3v8h16v-4zm0 8a4 4 0 01-4-4H3v8h10v-4zm48 8a4 4 0 01-4-4h-3v8h10v-4z"/><path d="M7 54v-9a2 2 0 014 0v3a3 3 0 006 0v-6a3 3 0 016 0v2a3 3 0 006 0V31a2.978 2.978 0 00-.779-2H3v27.816A2.962 2.962 0 004 57a3 3 0 003-3zm42-16v3a2 2 0 004 0v-1a3 3 0 006 0v-1a2.978 2.978 0 00-.779-2H51v-1a2 2 0 00-2 2z"/></g><path d="M3 29v23a3 3 0 003 3 3 3 0 003-3v-9a2 2 0 012-2 2 2 0 012 2v3a3 3 0 003 3 3 3 0 003-3v-6a3 3 0 013-3 3 3 0 013 3v2a3 3 0 003 3 3 3 0 003-3V29a3 3 0 00-3-3H6a3 3 0 00-3 3z" fill="#93999a"/><path d="M19.515 26L18.1 28.839a2.774 2.774 0 003.723 3.722l7.043-3.521a2 2 0 001.022-2.358A2.971 2.971 0 0028 26zM6 49V26a3 3 0 00-3 3v23a3 3 0 006 0 3 3 0 01-3-3zm12-4a2 2 0 01-2-2 2 2 0 00-2-2h-3a2 2 0 012 2v3a3 3 0 006 0v-1zm11-4a2 2 0 01-2-2 2 2 0 00-2-2h-3a3 3 0 013 3v2a3 3 0 006 0v-1z" fill="#656b76"/><path d="M58 34h-5a2 2 0 00-2 2v3a2 2 0 004 0v-1a3 3 0 006 0v-1a3 3 0 00-3-3z" fill="#d0d8da"/><path d="M57 35v-1h-4a2 2 0 00-2 2v3a2 2 0 004 0v-1a3 3 0 006 0h-1a3 3 0 01-3-3z" fill="#93999a"/><path d="M19.615 29.042a2.776 2.776 0 01-.52-3.2l3.522-7.042a2 2 0 013.2-.52l4.561 4.561a2 2 0 01-.52 3.2l-7.043 3.521a2.774 2.774 0 01-3.2-.52z" fill="#d0d8da"/><rect fill="#f9e109" height="14" rx="2" transform="rotate(45 34.469 8.53)" width="4" x="32.464" y="1.536"/><path d="M29.677 22.132l-6.859 3.429a2.774 2.774 0 01-3.2-.519c-.028-.029-.05-.061-.076-.09l-.444.887a2.774 2.774 0 003.723 3.722l7.043-3.521a2 2 0 00.52-3.2z" fill="#93999a"/><path d="M39.32 3.509l-6.977 6.976a1.993 1.993 0 01-2.734.077l-.094.1a2 2 0 002.828 2.828l7.071-7.071a2 2 0 000-2.828c-.029-.035-.064-.055-.094-.082z" fill="#fcbc04"/><path d="M58 33h-5a2.966 2.966 0 00-1 .184V29a1 1 0 00-1-1h-7a1 1 0 000 2h6v6H36v-6h4a1 1 0 000-2h-8.133a3.925 3.925 0 00-.832-1.594 2.974 2.974 0 00.053-4.276l-1.573-1.574a3 3 0 000-4.242 1 1 0 010-1.415l.128-.128a2.965 2.965 0 003.407-.579l2.157-2.156a1 1 0 00-1.414-1.414l-2.157 2.156a1.024 1.024 0 01-1.414 0 1 1 0 010-1.414l7.071-7.071a1 1 0 111.414 1.414l-2.086 2.086a1 1 0 001.414 1.414l2.086-2.085a3 3 0 10-4.242-4.243L28.808 9.95a2.965 2.965 0 00-.579 3.407l-.128.128a3 3 0 000 4.244 1 1 0 010 1.413l-1.574-1.574a3 3 0 00-4.8.78L18.4 25H6a4 4 0 00-4 4v10a1 1 0 002 0V29a2 2 0 012-2h11.809a3.768 3.768 0 001.1 2.749 3.774 3.774 0 004.358.707l5.982-2.991A1.96 1.96 0 0130 29v13a2 2 0 01-4 0v-2a4 4 0 00-8 0v6a2 2 0 01-4 0v-3a3 3 0 00-6 0v9a2 2 0 01-4 0v-9a1 1 0 00-2 0v18a1 1 0 001 1h48a1 1 0 000-2h-5v-6h14v6h-5a1 1 0 000 2h6a1 1 0 001-1V49a1 1 0 00-2 0v3H36v-6h14v3a1 1 0 002 0v-3h9a1 1 0 001-1v-8a4 4 0 00-4-4zm-5 2h5a2 2 0 012 2v1a2 2 0 01-4 0 1 1 0 00-2 0v1a1 1 0 01-2 0v-3a1 1 0 011-1zm-21 1v-6h2v6zm-9.629-7.333a1.772 1.772 0 01-2.049-.333 1.77 1.77 0 01-.332-2.048l3.522-7.043a.988.988 0 01.733-.54 1.031 1.031 0 01.165-.014.985.985 0 01.7.294l1.573 1.573-2.121 2.122a1 1 0 101.414 1.414l2.124-2.121 1.573 1.573a1 1 0 01-.26 1.6zM32 42v-4h12v6H31.444A3.959 3.959 0 0032 42zm-10-4a2 2 0 012 2v2a3.959 3.959 0 00.556 2H20v-4a2 2 0 012-2zm-6 12a3.959 3.959 0 002-.556V52h-8v-6h2a4 4 0 004 4zm-5-8a1 1 0 011 1v1h-2v-1a1 1 0 011-1zM4 55.444A3.936 3.936 0 009.444 54H12v6H4zM44 60H14v-6h14v3a1 1 0 002 0v-3h14zm-24-8v-6h14v6zm26-8v-6h4v1a3 3 0 005.288 1.938 3.945 3.945 0 004.712.506V44z" fill="#323232" data-name="Outline copy"/></g></svg>