<svg xmlns="http://www.w3.org/2000/svg" width="365.419" height="365.419"><path d="M90.454 127.963c0 4.896-1.224 10.404-4.896 14.076-3.06 3.06 1.836 7.956 4.896 4.896 4.896-4.896 7.956-11.628 8.568-18.972.612-5.508-8.568-5.508-8.568 0zm19.584-44.676c-3.06 7.956-6.12 15.912-5.508 24.48 0 4.896 7.344 4.896 7.344 0 .612-7.956 3.06-14.076 6.732-20.808 3.672-5.508-5.508-10.404-8.568-3.672zm18.972-41.004c-3.06 2.448-3.06 6.12-4.284 9.792-.612 3.672-1.836 7.956-3.06 11.628-1.224 3.06 3.672 5.508 5.508 2.448 1.836-3.672 3.06-6.732 4.284-10.404 1.224-3.672 3.06-7.344 3.06-11.016 0-3.06-3.06-4.284-5.508-2.448zm39.168-30.6c-4.284-4.284-8.568-7.956-14.076-11.016-1.836-1.224-4.284-.612-5.508.612-6.12 7.344-10.404 17.136-9.792 26.316 0 4.284 6.12 3.672 6.12 0 .612-6.732 3.672-12.24 7.956-17.136 3.06 1.836 6.12 4.284 9.18 7.344 3.672 4.284 10.404-1.836 6.12-6.12zm21.42 22.644c-2.448-1.836-2.448-3.672-1.836-5.508 1.224-3.672-4.284-5.508-6.12-2.448-1.224 1.836-1.836 3.06-1.836 5.508 0 1.836.612 4.284 1.836 5.508 1.836 3.06 5.508 6.732 8.568 7.344 3.06.612 5.508-1.836 4.283-4.284-.611-3.06-2.447-4.284-4.895-6.12zm36.72 36.72c-3.06-1.836-6.731-3.06-9.792-4.284-3.672-1.224-7.344-3.06-11.016-4.896-3.061-1.224-5.508 3.06-2.448 4.284 3.06 1.836 6.732 3.672 9.792 5.508 3.672 1.836 6.732 4.896 10.404 6.12 4.896 2.448 6.732-4.284 3.06-6.732zm19.584 33.66c-3.06-3.06-6.12-5.508-9.792-8.568-2.448-2.448-6.12 1.224-3.672 3.672 3.06 3.06 5.508 6.732 8.568 9.792 2.447 3.06 5.508 7.956 9.18 8.568 3.06.612 5.508-1.836 4.284-4.284-.612-4.283-5.508-6.732-8.568-9.18zm26.316 38.556c1.224 0-1.225-1.836-1.225-2.448-.611-1.224-1.836-3.06-2.447-4.284-1.225-2.448-3.061-4.896-4.896-6.732-3.06-3.06-6.731 1.224-4.284 4.284 1.836 1.836 2.448 4.896 3.672 7.344.612 1.836 1.837 3.672 2.448 5.508-4.896 3.06-9.792 2.448-15.3 3.672-4.896 1.224-4.896 8.568 0 9.792 9.18 1.836 18.36-1.836 24.479-7.956 2.449-3.672 1.225-7.956-2.447-9.18zM113.71 169.579c-4.896 1.224-9.18 3.672-14.688 3.672-4.896 0-7.344-5.508-7.344-9.792-.612-4.284-6.12-2.448-6.732.612-.612 7.344 1.224 15.3 9.18 18.36 7.344 2.448 17.136.613 23.256-3.672 4.284-3.06 1.836-10.404-3.672-9.18zm38.556 1.224c-3.672-1.224-8.568.612-12.24-1.836-3.06-2.448-7.344 1.836-4.284 4.284 3.672 3.672 11.628 6.12 16.524 4.284 3.672-.612 3.672-5.508 0-6.732zm12.24 10.404c-.612-4.284-6.12-4.284-6.12 0-.612 7.345-1.836 14.688-1.836 22.032 0 6.12 9.792 6.12 9.792 0 0-7.343-1.224-14.687-1.836-22.032zm.612 58.752c-.612-5.508-1.224-10.403-1.836-15.912 0-2.447-4.284-2.447-4.284 0-.612 4.896-1.224 9.181-1.836 14.076-.612 4.896-1.836 9.792.612 14.076 1.224 2.448 4.896 2.448 6.12 0 2.448-3.672 1.836-7.956 1.224-12.24zm.612 48.349c0-2.448 0-4.896-.612-6.732l-1.836-7.344c0-1.836-3.06-1.836-3.672 0 0 1.836-1.224 4.284-1.836 6.12-.612 2.447-.612 4.284-.612 6.731-.612 4.284-1.836 10.404 1.224 13.464 1.224 1.225 4.284 1.225 5.508 0 3.06-3.672 1.836-8.568 1.836-12.239zm-4.896 32.435c0-3.672-4.896-3.672-5.508 0-.612 9.792-3.06 21.42-1.224 31.212.612 4.284 7.344 4.284 7.956 0 1.836-9.792-.612-21.42-1.224-31.212zm33.048 36.109c-.612-3.061-3.672-3.672-6.12-3.061-1.225 0-2.448.612-3.061 1.836-.612 0-1.224.612-1.224.612-1.224.612-2.448.612-3.672.612-.612 0-1.836.611-1.836.611-4.896.612-4.896 7.956 0 7.956 4.284 0 9.18-.611 12.852-2.447 2.449-1.835 3.673-3.672 3.061-6.119zm41.616-12.241c-4.283-.612-7.344.612-11.016 1.224-5.508 1.225-11.016 1.836-15.912 1.836-3.672 0-3.672 5.509 0 6.12 8.568.612 23.868 4.284 29.376-4.896 0-1.224-.612-4.284-2.448-4.284zm36.72-14.688c-4.896 3.061-11.017 4.284-15.912 7.345-4.284 2.447-.612 8.567 3.672 6.731 4.896-2.448 11.016-3.06 15.912-5.508 6.12-2.448 1.836-11.628-3.672-8.568zm7.344-18.36c-3.672-1.836-6.732-4.896-9.18-7.956-2.448-3.061-4.284-6.732-7.345-9.181-2.447-1.224-4.896.612-4.896 3.061 0 4.896 3.672 8.568 6.731 11.628 3.061 3.06 7.345 6.12 11.629 7.956 3.061 1.224 6.121-3.672 3.061-5.508zm-23.256-38.556c-1.225-1.836-1.836-3.06-3.061-4.896-1.224-2.448-1.224-4.284-1.224-7.344-.612-5.509-8.568-5.509-8.568 0 0 3.06 1.225 6.731 3.061 9.18s4.284 4.284 6.731 6.12c1.837 1.224 4.285-1.224 3.061-3.06zm-15.912-36.72c-1.224-3.06-3.06-6.12-4.896-9.18-1.836-3.061-2.447-6.732-4.283-10.404-1.225-3.672-6.732-3.672-7.345 0-1.836 8.568 6.732 15.912 11.017 22.645 2.447 3.672 7.343.611 5.507-3.061zm-19.584-43.452c-3.672-4.896-5.508-10.404-9.792-14.688-4.284-4.284-9.792 1.836-6.12 6.12s6.12 9.18 10.404 12.852c3.06 2.448 7.956-1.223 5.508-4.284zm9.18-30.6c-2.447-2.448-5.508-1.836-8.567-1.836-3.673 0-6.732.612-10.404.612-4.896.612-4.896 6.732 0 7.344 3.06 0 6.12.612 9.18.612 3.672 0 7.345.612 9.792-1.836 1.835-1.224 1.835-3.672-.001-4.896z"/></svg>