<svg height="512" viewBox="0 0 60 60" width="512" xmlns="http://www.w3.org/2000/svg"><path d="M43 11v44a4 4 0 01-4 4H5a4 4 0 01-4-4V11a4 4 0 014-4h15a2 2 0 004 0h15a4 4 0 014 4z" fill="#805333"/><path d="M57.629 48.734c1.377 4.486-1.417 6.352-2.884 6.985l-1.331.066c-1.4-.558-4.417-2.365-3.08-6.927z" fill="#d1d4d1"/><path d="M58 16.167v15.554l-8 .001V10h7.832z" fill="#c03a2b"/><rect fill="#e64c3c" height="23" rx="2" width="10" x="49" y="28"/><circle cx="54" cy="57" fill="#3f5c6c" r="2"/><path d="M53 1h2a3 3 0 013 3v6h-8V4a3 3 0 013-3z" fill="#c03a2b"/><path d="M55 10h-5a1 1 0 01-1-1V6a1 1 0 011-1h8a1 1 0 011 1v3" fill="#802f34"/><path d="M55 5h3a1 1 0 011 1v12a1 1 0 01-1 1h-2a1 1 0 01-1-1V5z" fill="#e64c3c"/><path d="M33 11h5a1 1 0 011 1v42a1 1 0 01-1 1H6a1 1 0 01-1-1V12a1 1 0 011-1z" fill="#ecf0f1"/><path d="M29.74 7a2 2 0 01-1.93-1.5 6 6 0 00-11.62 0A2 2 0 0114.26 7H11v8a2.006 2.006 0 002 2h18a2.006 2.006 0 002-2V7zM22 9a2 2 0 112-2 2.006 2.006 0 01-2 2z" fill="#f3d55b"/><path d="M28 14H16a1 1 0 010-2h12a1 1 0 010 2z" fill="#f0c419"/><path d="M12 24h-2a1 1 0 010-2h2a1 1 0 010 2zm22 0H16a1 1 0 010-2h18a1 1 0 010 2zm0 5H10a1 1 0 010-2h24a1 1 0 010 2zm-8 5H10a1 1 0 010-2h16a1 1 0 010 2zm-9 17h-2a1 1 0 010-2h2a1 1 0 010 2zm-6 0H9a1 1 0 010-2h2a1 1 0 010 2zm12 0h-2a1 1 0 010-2h2a1 1 0 010 2zm12 0h-2a1 1 0 010-2h2a1 1 0 010 2zm-6 0h-2a1 1 0 010-2h2a1 1 0 010 2zm-9-4a5.191 5.191 0 01-3.9-1.4A3.772 3.772 0 0113 47c-3.164 0-4-3.271-4-5a1 1 0 012 0c0 .139.047 3 2 3a1.885 1.885 0 002-2.006 1 1 0 012-.007V43c.01.322.2 2 3 2 2.263 0 2.953-.69 3-1.056a.976.976 0 011-.972A1.023 1.023 0 0125 44c0 .123-.057 3-5 3z" fill="#3f5c6c"/></svg>