<svg xmlns="http://www.w3.org/2000/svg" width="377.114" height="377.115"><path d="M16.808 330.236c-1.836-2.449-4.896-4.285-7.344-6.732-2.448-2.447-4.284-6.119-6.12-9.18-1.224-1.836-4.284-.611-3.06 1.225 2.448 6.119 6.732 17.135 14.076 17.748 2.448.611 3.672-1.225 2.448-3.061zm47.124 27.539c-3.672-2.447-7.956-3.059-12.24-4.283-4.896-1.836-9.792-3.672-13.464-6.732a1.353 1.353 0 00-1.836 1.836c6.12 6.732 16.524 14.076 26.316 14.688 2.448-.613 3.06-4.284 1.224-5.509zm37.943-25.092c-3.06 3.061-5.508 6.732-9.18 9.18-3.672 2.449-7.344 3.061-11.628 3.672-2.448.613-1.224 3.061.612 3.674 10.404 1.223 20.196-3.674 24.48-12.854.612-3.059-2.448-6.119-4.284-3.672zm9.181-37.332c-.612-.611-1.836-.611-3.06 0-2.448 2.449-1.836 5.508-1.836 7.957 0 4.283-.612 7.955-2.448 11.627-.612 2.449 2.448 3.672 3.672 1.836 1.836-3.672 3.06-7.344 3.672-11.016 1.836-3.06 3.06-7.955 0-10.404zm-12.852-16.523c-3.672-1.836-6.732-4.896-9.792-7.344-3.06-3.061-5.508-6.121-9.18-8.568-2.448-1.225-4.896 1.225-3.672 3.672 2.448 3.672 6.12 6.732 9.792 9.793 3.06 2.447 6.732 4.895 10.404 6.73 3.059 1.224 5.508-2.447 2.448-4.283zm-42.228-19.584c-4.284 0-7.956.611-11.628 2.447-3.06 1.836-7.344 5.508-7.344 9.182 0 1.836 2.448 3.672 4.284 2.447 2.448-1.836 4.284-4.285 6.12-6.121 2.448-1.836 5.508-3.059 7.956-3.059 3.672 0 4.283-4.285.612-4.896zm0 44.064c-2.448-3.672-2.448-8.568-1.224-12.24.612-1.836-2.448-3.061-3.06-1.225-1.836 4.896-3.06 9.18-1.836 14.076 1.224 4.283 4.284 10.404 8.568 11.629 1.836.611 3.672-1.225 3.06-3.061-.612-3.671-3.672-6.12-5.508-9.179zm42.228 22.643c-2.448-1.223-5.508-.611-8.568-1.836-3.672-1.223-6.732-3.672-9.792-6.119-1.836-1.836-4.284.611-2.448 2.447 4.284 4.896 13.464 13.465 20.808 11.018 2.447-1.225 2.447-4.897 0-5.51zm57.527-12.852c-7.956 4.896-15.912 9.793-24.48 12.852-2.448 1.225-1.836 4.896 1.224 4.285 9.792-2.449 20.808-4.285 26.928-13.465 1.837-1.836-1.223-4.895-3.672-3.672zm23.257-39.168c-.612-2.447-3.672-2.447-4.896-1.223-3.06 2.447-4.284 7.955-6.732 11.627-2.448 3.672-5.508 7.344-8.568 11.016-1.836 1.836 1.224 4.896 3.06 3.061 4.284-3.672 7.956-7.344 11.628-11.016 3.06-3.672 6.731-8.568 5.508-13.465zm5.508-50.795c-1.224-1.836-4.896-1.225-4.284 1.223.612 9.793 4.284 18.973 4.284 28.152 0 1.836 2.448 1.836 2.448 0 .612-9.791 3.059-20.808-2.448-29.375zm-9.792-22.033c-1.836-3.672-3.672-7.344-6.732-10.404-3.06-3.671-6.12-8.567-10.404-9.791-1.836-.612-4.284 1.224-3.06 3.06 1.224 3.672 4.896 6.12 7.344 8.567 3.06 3.061 6.732 6.732 9.18 10.404 1.836 2.449 4.896.613 3.672-1.836zM133.7 165.607c-3.672-3.672-7.956-5.508-12.852-7.344-5.508-1.224-12.852-2.448-17.748-.612-3.06 1.224-3.06 4.896 0 6.12 9.18 3.672 19.584-1.224 28.152 5.508 1.835 1.224 3.672-1.836 2.448-3.672zm-37.945 12.852c-8.568 7.344-23.256 23.868-13.464 35.497 1.836 1.836 4.896.611 5.508-1.225 1.224-4.896 0-9.793 1.224-14.076 1.836-6.121 6.12-11.628 9.792-16.524 1.836-3.059-1.223-5.507-3.06-3.672zm15.912 63.037c-3.672-3.061-7.344-5.508-11.016-8.568-3.672-3.672-6.12-7.955-8.568-12.24-.612-1.836-3.672-.611-3.06 1.225 2.448 9.791 8.568 24.48 20.808 23.867 1.836-.001 3.672-3.06 1.836-4.284zm39.781 15.3c-7.344-1.836-15.3-.613-21.42-5.51-1.224-1.223-3.06.613-1.836 1.838 6.12 6.73 15.3 9.18 23.868 7.344 1.224 0 1.224-3.06-.612-3.672zm54.468 9.18c-7.956-4.896-20.809-3.672-29.988-2.449-2.448 0-2.448 3.672 0 4.285 4.896.611 10.404.611 15.3 1.836 4.284.611 8.568 2.447 12.852 2.447 3.672-.611 4.283-4.896 1.836-6.119zm48.348-22.644c-4.896 1.836-7.956 4.896-12.24 7.955-4.284 3.674-8.567 6.121-13.464 8.568-2.448 1.225-.612 5.508 1.836 4.896 4.896-1.225 8.568-3.672 12.852-6.119 4.896-3.061 9.793-6.121 14.076-10.404 1.835-1.836-.001-6.121-3.06-4.896zm25.704-45.288c-.612-2.449-4.284-2.449-4.896 0-1.836 6.73-3.672 12.852-7.956 18.359-1.224 1.836.612 3.672 2.448 2.447 6.12-5.507 11.627-11.626 10.404-20.806zm-.613-51.408c-1.836-2.448-5.508-.612-4.896 1.836 2.447 7.956 3.06 16.524 3.672 24.48 0 2.448 4.284 2.448 4.284 0 1.225-8.568 2.448-18.36-3.06-26.316zM260.384 95.84c-1.836-2.448-4.896.612-3.672 3.06 3.672 8.568 9.18 16.524 13.464 25.092.612 1.836 3.672.612 3.06-1.224-2.448-9.792-6.121-19.584-12.852-26.928zm-28.765-15.3c-5.508-5.508-15.911-13.464-24.479-10.404-2.448.612-2.448 4.284 0 4.896 3.672 1.224 7.344.612 11.016 1.836S225.5 80.54 228.56 83.6c1.836 1.224 4.284-1.225 3.059-3.06zm-42.839-3.061c-5.508 0-10.404 1.224-14.076 5.508-3.06 3.672-7.956 11.628-4.896 16.524 1.224 2.448 4.284 1.836 6.12 0 1.224-1.836 1.224-3.06 1.224-4.896s.612-4.284 1.836-6.12c1.836-3.672 5.508-7.956 9.792-8.568 1.835.001 1.835-2.448 0-2.448zm12.24 63.037c-3.06-4.284-7.956-7.344-11.017-11.016-3.671-4.284-6.119-9.18-8.567-14.076-1.224-2.448-4.896-.612-4.284 1.836 2.448 9.792 9.792 24.48 20.196 27.54 2.448.612 4.895-2.448 3.672-4.284zm49.572 27.54c-4.896-2.448-9.792-3.06-15.3-4.896-7.345-1.836-13.465-5.508-18.973-10.404-2.447-2.448-6.12 1.224-3.672 3.672 8.568 9.18 23.868 17.136 36.72 17.136 2.448-.001 3.673-4.284 1.225-5.508zm50.183-41.004c-3.06 3.06-3.672 7.344-4.896 11.016-1.836 4.896-4.284 10.404-7.345 14.688-2.447 2.448 1.225 6.12 3.673 3.672 3.672-3.672 6.731-7.956 9.18-12.24s5.508-9.792 4.896-14.688c-.611-2.448-3.672-4.284-5.508-2.448zm15.913-44.064c-7.956 6.732-10.404 20.808-9.792 30.6 0 3.06 4.284 3.06 4.896 0 .611-4.284 1.836-9.18 3.06-13.464 1.836-4.896 5.508-9.18 6.732-14.076 0-3.06-3.061-4.897-4.896-3.06zm24.48-32.436c-3.672-.612-6.732 2.448-9.181 4.284-3.06 2.448-4.896 6.12-6.12 9.18-1.224 3.06 3.061 5.508 4.284 2.448 1.836-2.448 3.061-4.896 5.508-7.344 2.448-1.836 6.12-2.448 7.345-5.508.611-.612 0-2.448-1.836-3.06zm34.271-14.076c-1.224-6.12-3.06-12.852-5.508-18.972-.612-1.836-2.448-3.672-4.284-3.672-12.24.612-23.256 4.284-33.66 11.016-3.672 2.448-.611 7.956 3.672 6.12 8.568-4.896 17.137-7.344 26.316-7.344l3.672 12.852c1.225 4.896.612 9.792 3.672 13.464 1.836 2.448 4.896 1.224 6.12-.612 3.061-3.672 1.224-9.181 0-12.852z"/></svg>