<svg height="512" viewBox="0 0 128 128" width="512" xmlns="http://www.w3.org/2000/svg"><path d="M68.2 41.64L41.64 68.2 1.75 28.3 28.3 1.75l8.01 8.01 2.48 2.47 6.94 6.94 2.47 2.48 6.94 6.94 2.48 2.48zm58.05 58.06L99.7 126.25 59.8 86.36 86.36 59.8l6.45 6.45 2.47 2.48 6.94 6.94 2.48 2.47z" fill="#19cffc"/><path d="M124.284 21.875a6.716 6.716 0 000-9.495l-8.664-8.664a6.716 6.716 0 00-9.5 0l-11.1 11.1 18.159 18.158z" fill="#635a70"/><path d="M85.515 24.324l9.5-9.501 18.156 18.156-9.5 9.5z" fill="#ff8859"/><path d="M85.526 24.315L11.675 98.167s9.563-1.552 14.637 3.521 3.521 14.637 3.521 14.637l73.852-73.851z" fill="#fff04a"/><path d="M29.833 116.325s1.552-9.563-3.521-14.637-14.637-3.521-14.637-3.521l-4.5 12.745 9.917 9.917z" fill="#ffd9c0"/><path d="M17.088 120.829l-9.917-9.917L1.75 126.25z" fill="#635a70"/><circle cx="102.749" cy="102.749" fill="#635a70" r="6.015"/><path d="M36.31 9.76l-9.02 9.02a1.75 1.75 0 002.47 2.48l9.03-9.03zm9.42 9.41L36.7 28.2a1.75 1.75 0 000 2.47 1.738 1.738 0 002.48 0l9.02-9.02zm.39 18.44a1.75 1.75 0 001.24 2.99 1.726 1.726 0 001.23-.51l9.03-9.02-2.48-2.48zm46.69 28.64l-9.03 9.03a1.75 1.75 0 002.48 2.47l9.02-9.02zm9.41 9.42l-9.02 9.02a1.75 1.75 0 001.24 2.99 1.743 1.743 0 001.23-.51l9.03-9.03z" fill="#1ea1e3"/><path d="M52.691 58.9a1.744 1.744 0 001.238-.513l3.354-3.355a1.749 1.749 0 00-2.474-2.474l-3.355 3.355a1.75 1.75 0 001.237 2.987zm50.058 51.614a7.766 7.766 0 10-5.491-2.275 7.718 7.718 0 005.491 2.275zm-3.017-10.781a4.265 4.265 0 110 6.032 4.237 4.237 0 010-6.032z"/><path d="M122.889 93.861a1.75 1.75 0 00-2.475 2.475l3.361 3.362L99.7 123.775l-37.423-37.42 24.078-24.077 5.213 5.213-7.785 7.785a1.75 1.75 0 102.475 2.475l7.785-7.785 6.941 6.941-7.784 7.785a1.75 1.75 0 102.475 2.475l7.785-7.785 8.49 8.49a1.75 1.75 0 002.475-2.474l-9.725-9.727L88.83 59.8l16.092-16.092 9.5-9.5 11.1-11.1a8.461 8.461 0 000-11.969l-8.663-8.664a8.474 8.474 0 00-11.969 0l-11.1 11.1-9.5 9.5L68.2 39.17 38.787 9.761 29.539.513a1.749 1.749 0 00-2.475 0L.513 27.065a1.749 1.749 0 000 2.475L39.17 68.2 10.437 96.929a2.948 2.948 0 00-.413.654l-4.5 12.746L.1 125.667a1.75 1.75 0 002.233 2.233l15.338-5.42 12.745-4.505a1.977 1.977 0 00.654-.413L59.8 88.83l38.658 38.657a1.748 1.748 0 002.474 0l26.552-26.552a1.749 1.749 0 000-2.475zM107.362 4.954a4.971 4.971 0 017.021 0l8.663 8.664a4.962 4.962 0 010 7.019l-9.86 9.86L97.5 14.813zM95.028 17.288l15.684 15.684L103.685 40 88 24.315zM47.085 65.232a1.75 1.75 0 00-2.475-2.475l-2.965 2.966L4.225 28.3 28.3 4.225 35.074 11l-7.786 7.785a1.75 1.75 0 102.475 2.474l7.785-7.785 6.941 6.941L36.7 28.2a1.75 1.75 0 102.475 2.474l7.785-7.785 6.941 6.941-7.781 7.783a1.75 1.75 0 102.48 2.475l7.78-7.788 9.343 9.343-4.071 4.07a1.75 1.75 0 002.475 2.475l21.4-21.4 15.683 15.686-69.421 69.42c-.175-4.6-1.611-9.614-5.446-12.487a18.239 18.239 0 00-10.238-3.2zM12.959 99.784c4.173-.293 8.941.113 12.115 3.142 3.03 3.174 3.435 7.942 3.142 12.114l-10.671 3.772-4.178-4.179-4.179-4.178zm-8.338 23.6l3.279-9.272 5.993 5.993z"/></svg>