<svg height="512" viewBox="0 0 128 128" width="512" xmlns="http://www.w3.org/2000/svg"><path d="M59.294 17.982L46.961 34.667 33.346 45.333l5.615 22.334-5.615 31 7.384 11.351h36.564l9.333-23.351L75.961 61l3.666-24z" fill="#ececf1"/><g fill="#dbdae5"><path d="M70.807 61.627l3.479-22.776L64 29.23v75.788h9.908l7.32-18.314z"/><path d="M94.654 110.018l-3.834-7.685L78.487 97.5l-14.5 8 1.167 4.518z"/></g><g fill="#432c00"><path d="M110.018 108.268H95.737l-3.35-6.716a1.753 1.753 0 00-.928-.848l-12.333-4.833a1.748 1.748 0 00-1.484.1L70.5 99.906 54.54 82.27l20.745-18.336 9.452 22.746-2.512 6.286a1.75 1.75 0 003.25 1.3l2.777-6.949A1.751 1.751 0 0088.243 86L77.765 60.78l3.591-23.515a1.746 1.746 0 00-.534-1.543l-6.48-6.062a1.75 1.75 0 10-2.391 2.557l5.807 5.43-3.034 19.865-16.872-15.32a1.751 1.751 0 00-2.352 2.592l17.84 16.2-37.372 33.03 4.081-22.536 6.042 6.675a1.751 1.751 0 002.6-2.349L41 67.31l18.952-46.316 2.073 1.94a1.75 1.75 0 102.391-2.557L60.489 16.7a1.748 1.748 0 00-2.6.238L45.694 33.436 32.268 43.955a1.75 1.75 0 00-.619 1.8l3.668 14.593a1.75 1.75 0 003.4-.854l-3.391-13.49 11.557-9.053 2.013 1.828L37.342 67a1.7 1.7 0 00-.1.35l-5.614 31a1.749 1.749 0 00.255 1.266l5.625 8.647H25.75a1.75 1.75 0 000 3.5h84.268a1.75 1.75 0 000-3.5zM49.309 34.435l3.051-4.128-2.06 5.029zm29.3 64.994l10.942 4.288 2.269 4.551H66.509l-.488-1.891zm-42.976-.45l16.279-14.39 15.438 17.055-4.212 2.324a1.749 1.749 0 00-.849 1.97l.6 2.33H41.68zm-16.383 9.289h-1.268a1.75 1.75 0 000 3.5h1.268a1.75 1.75 0 000-3.5z"/><path d="M67.171 27.746a1.75 1.75 0 102.391-2.557l-.771-.72a1.75 1.75 0 10-2.391 2.556z"/></g></svg>