<svg xmlns="http://www.w3.org/2000/svg" viewBox="0 0 512 512"><path fill="#8de0a8" d="M503.111 83.623V47.325H10.216v269.372h492.895V119.922"/><path d="M10.215 316.704h492.893v147.978H10.215zm186.266-231.17H94.28c0 25.321-20.532 45.853-45.853 45.853v101.246c25.321 0 45.853 20.532 45.853 45.853h324.766c0-25.321 20.532-45.853 45.853-45.853V131.386c-25.321 0-45.853-20.532-45.853-45.853H316.845" fill="#81cc96"/><path fill="#fcd577" d="M196.48 47.33h120.364v417.351H196.48z"/><path fill="#eac36e" d="M196.48 316.704h120.364v147.978H196.48z"/><path d="M502.447 93.177A9.552 9.552 0 00512 83.624V47.325a9.552 9.552 0 00-9.553-9.553H9.553C4.277 37.773 0 42.05 0 47.325v417.35a9.553 9.553 0 009.553 9.553h492.895a9.552 9.552 0 009.553-9.553V119.922c0-5.276-4.276-9.553-9.553-9.553s-9.553 4.277-9.553 9.553v187.223H325.731v-19.107h92.651a9.552 9.552 0 009.553-9.553c0-20.016 16.284-36.3 36.3-36.3a9.552 9.552 0 009.553-9.553V131.386a9.552 9.552 0 00-9.553-9.553c-20.016 0-36.3-16.284-36.3-36.3a9.552 9.552 0 00-9.553-9.553h-92.651V56.878h167.163v26.746c.001 5.276 4.276 9.553 9.553 9.553zM19.105 56.878h167.163v19.103H93.616a9.553 9.553 0 00-9.553 9.553c0 20.016-16.284 36.3-36.3 36.3a9.553 9.553 0 00-9.553 9.553v101.246a9.553 9.553 0 009.553 9.553c20.016 0 36.3 16.284 36.3 36.3a9.553 9.553 0 009.553 9.553h92.651v19.107H19.105V56.878zm0 343.359H56.04c5.276 0 9.553-4.277 9.553-9.553s-4.277-9.553-9.553-9.553H19.105v-17.883h167.163v17.883H87.882c-5.276 0-9.553 4.277-9.553 9.553s4.277 9.553 9.553 9.553h98.386v17.895H19.105v-17.895zm167.164-56.093H19.105V326.25h167.163v17.894zM19.105 437.238h167.163v17.884H19.105v-17.884zm186.269 17.884V326.25h101.252v128.872H205.374zm287.521-73.99H325.731v-17.883h167.163l.001 17.883zm-167.164 73.99v-54.885h167.163v17.895H347.701a9.552 9.552 0 00-9.553 9.553 9.552 9.552 0 009.553 9.553h145.193v17.884H325.731zM492.895 326.25v17.894H325.731V326.25h167.164zM409.654 95.086c3.998 22.909 22.119 41.029 45.029 45.029v83.789c-22.909 3.999-41.031 22.12-45.029 45.029H325.73V95.086h83.924zM306.626 307.145H205.374v-70.179a9.553 9.553 0 00-9.553-9.553 9.553 9.553 0 00-9.553 9.553v31.967h-83.922c-3.999-22.909-22.12-41.029-45.029-45.029v-83.789c22.909-3.999 41.029-22.12 45.029-45.029h83.922v110.037c0 5.276 4.277 9.553 9.553 9.553s9.553-4.277 9.553-9.553V56.878h101.252v250.267z"/></svg>