<svg height="512pt" viewBox="0 0 512 512" width="512pt" xmlns="http://www.w3.org/2000/svg"><path d="M512 256c0 141.387-114.613 256-256 256S0 397.387 0 256 114.613 0 256 0s256 114.613 256 256zm0 0" fill="#ff432e"/><path d="M512 256c0-7.113-.305-14.16-.875-21.129L358 81.746s-200.297 349.23-203.277 349.262l80.113 80.113c6.98.574 14.035.879 21.164.879 141.387 0 256-114.613 256-256zM154.723 431.008l-.106-.102c0 .07.04.102.106.102zm0 0" fill="#db0404"/><path d="M347.398 435H164.602c-7.856 0-14.22-6.367-14.22-14.219V91.22c0-7.852 6.364-14.219 14.22-14.219h182.796c7.856 0 14.22 6.367 14.22 14.219v329.56c0 7.852-6.364 14.219-14.22 14.219zm0 0" fill="#414952"/><path d="M347.398 77h-91.59v358h91.59c7.856 0 14.22-6.367 14.22-14.219V91.22c0-7.852-6.364-14.219-14.22-14.219zm0 0" fill="#23272b"/><path d="M162.668 101.332h186.668v297.332H162.668zm0 0" fill="#fff"/><path d="M255.809 101.332h93.527v297.332h-93.527zm0 0" fill="#e9edf5"/><path d="M333 218.332c0 42.527-34.473 77-77 77s-77-34.473-77-77c0-42.523 34.473-77 77-77s77 34.477 77 77zm0 0" fill="#4a7aff"/><path d="M256 141.332c-.063 0-.129.008-.191.008v153.988c.066 0 .129.004.191.004 42.527 0 77-34.473 77-77 0-42.523-34.473-77-77-77zm0 0" fill="#0053bf"/><path d="M287.793 190.043c0 17.559-14.234 31.793-31.793 31.793s-31.793-14.234-31.793-31.793c0-17.559 14.234-31.793 31.793-31.793s31.793 14.234 31.793 31.793zm0 0" fill="#53edf5"/><path d="M256 158.25c-.063 0-.129.004-.191.004v63.574c.066 0 .129.008.191.008 17.559 0 31.793-14.234 31.793-31.793 0-17.559-14.234-31.793-31.793-31.793zm0 0" fill="#33ccde"/><path d="M256 295.332c21.68 0 41.262-8.96 55.254-23.379-4.344-26.605-27.422-46.914-55.254-46.914s-50.91 20.309-55.254 46.914c13.992 14.418 33.574 23.379 55.254 23.379zm0 0" fill="#53edf5"/><path d="M311.254 271.953C306.91 245.348 283.832 225.04 256 225.04c-.063 0-.129.008-.191.008v70.281c.066 0 .128.004.191.004 21.68 0 41.262-8.96 55.254-23.379zm0 0" fill="#33ccde"/><path d="M237.54 340.332c0 12.152-9.852 22-22 22-12.15 0-22-9.848-22-22 0-12.148 9.85-22 22-22 12.148 0 22 9.852 22 22zm0 0" fill="#53edf5"/><path d="M318.46 340.332c0 12.152-9.85 22-22 22-12.147 0-22-9.848-22-22 0-12.148 9.853-22 22-22 12.15 0 22 9.852 22 22zm0 0" fill="#4a7aff"/></svg>