<svg xmlns="http://www.w3.org/2000/svg" viewBox="0 0 511.999 511.999"><path d="M271.578 81.012l33.328 90.244c15.274 41.356 61.201 62.51 102.57 47.233 11.08-4.093 20.701-10.38 28.569-18.187l-.004-.012c19.034-18.89 27.764-46.689 21.762-73.828a25.78 25.78 0 006.994-9.109c5.956-12.91.306-28.208-12.611-34.148-12.914-5.968-28.225-.314-34.172 12.62l-19.611-33.744-13.358-22.972-113.467 41.903z" fill="#fcd2be"/><path d="M436.04 200.289c19.034-18.89 27.764-46.689 21.762-73.828a25.78 25.78 0 006.994-9.109c5.956-12.91.306-28.208-12.611-34.148-12.914-5.968-28.225-.314-34.172 12.62L398.402 62.08l-18.24 11.286c13.586 11.271 67.926 50.657 55.878 126.923z" fill="#fab998"/><path d="M430.082 50.462l11.217 30.371c-9.696.034-18.95 5.59-23.278 14.987l-6.693-18.123c-4.968 1.835-9.505 2.712-13.664 2.853-24.721.925-35.261-23.766-35.261-23.766-15.071 32.7-81.721 48.852-81.721 48.852-6.231-16.872-5.033-34.673 1.941-49.813 6.966-15.124 19.716-27.604 36.586-33.836l27.225-10.055c33.731-12.455 71.186 4.787 83.648 38.53z" fill="#50515b"/><path d="M430.082 50.462l11.217 30.371c-9.696.034-18.95 5.59-23.278 14.987l-6.693-18.123c-4.968 1.835-9.505 2.712-13.664 2.853-6.493-37.599-37.801-73.576-67.589-62.575l16.359-6.042c33.731-12.456 71.186 4.786 83.648 38.529z" fill="#393a42"/><path d="M156.32 237.707l28.688 91.824c13.147 42.081-10.318 86.871-52.412 100.023-11.274 3.522-22.733 4.415-33.73 3.034l-.004-.013c-26.607-3.344-50.492-20.034-62.304-45.193a25.79 25.79 0 01-11.1-2.945c-12.598-6.59-17.461-22.157-10.856-34.746 6.586-12.61 22.165-17.477 34.77-10.863l-5.065-38.698-3.443-26.35 115.456-36.073z" fill="#fcd2be"/><path d="M98.863 432.575c-26.607-3.344-50.492-20.034-62.304-45.193a25.79 25.79 0 01-11.1-2.945c-12.598-6.59-17.461-22.157-10.856-34.746 6.586-12.61 22.165-17.477 34.77-10.863l-5.065-38.698 21.337-2.196c-3.88 17.22-22.879 81.586 33.218 134.641z" fill="#fab998"/><path d="M180.342 189.417c11.428 36.577-8.965 75.484-45.531 86.908l-69.165 21.609 1.92 6.147c4.568 14.622-3.588 30.17-18.209 34.739-9.293-4.869-20.214-3.492-27.938 2.62l-8.451-27.047c-11.423-36.564 8.965-75.484 45.531-86.908l121.843-38.068z" fill="#f9ce55"/><path d="M112.545 210.598L58.5 227.484c-36.564 11.423-56.954 50.343-45.531 86.908l8.451 27.047c7.725-6.112 18.645-7.489 27.938-2.62 14.622-4.568 22.777-20.117 18.209-34.739l-1.92-6.147 1.368-.428c-11.424-36.564 8.966-75.483 45.53-86.907z" fill="#e2a11e"/><path d="M55.327 424.792c7.204 9.85 17.183 19.818 29.271 28.656 12.092 8.841 24.612 15.324 36.191 19.201l11.956-16.353c3.38-4.623 9.868-5.631 14.491-2.25l21.841 15.969c4.623 3.381 5.631 9.868 2.25 14.491l-2.781 3.803c-17.601 24.072-63.798 20.245-103.184-8.552-39.386-28.796-57.045-71.657-39.445-95.73l2.781-3.803c3.381-4.623 9.868-5.631 14.491-2.25l21.844 15.971c4.623 3.381 5.631 9.868 2.25 14.491l-11.956 16.356zm413.38-270.483c1.872 12.06 1.863 26.163-.435 40.961-2.298 14.802-6.568 28.24-12.014 39.168l-20.018-3.109c-5.659-.879-10.959 2.996-11.839 8.655l-4.152 26.736c-.879 5.659 2.996 10.959 8.655 11.839l4.655.722c29.467 4.576 59.428-30.797 66.915-79.009 7.487-48.212-10.333-91.006-39.8-95.583l-4.655-.722c-5.659-.879-10.959 2.996-11.839 8.655l-4.152 26.74c-.879 5.659 2.996 10.959 8.655 11.839l20.024 3.108z" fill="#ef4a6e"/><path d="M214.964 114.725V52.507c0-13.541-10.978-24.519-24.519-24.519H53.884c-13.541 0-24.519 10.978-24.519 24.519v75.743c0 13.541 10.978 24.519 24.519 24.519h203.024l-41.944-38.044z" fill="#00c7a9"/><path d="M288.365 394.698v-62.217c0-13.541 10.978-24.519 24.52-24.519h136.561c13.541 0 24.519 10.978 24.519 24.519v75.743c0 13.541-10.978 24.52-24.519 24.52H246.422l41.943-38.046z" fill="#f9ce55"/><path d="M362.377 138.008a7.865 7.865 0 007.377-10.591l-4.575-12.389a7.865 7.865 0 00-14.755 5.448l4.575 12.389a7.864 7.864 0 007.378 5.143zm-32.21 11.895c.905 0 1.826-.157 2.724-.49a7.865 7.865 0 004.653-10.102l-4.576-12.389a7.864 7.864 0 10-14.755 5.449l4.576 12.389a7.866 7.866 0 007.378 5.143zm49.475 45.322a7.853 7.853 0 003.11-.645c16.279-7.019 26.265-19.001 28.877-34.651a7.863 7.863 0 00-6.461-9.051 7.855 7.855 0 00-9.052 6.462c-1.713 10.26-8.305 17.93-19.592 22.797a7.863 7.863 0 00-4.107 10.336 7.863 7.863 0 007.225 4.752z"/><path d="M298.18 130.315a7.865 7.865 0 00-14.755 5.449l14.111 38.206c8.115 21.976 24.305 39.477 45.585 49.279 11.692 5.384 24.148 8.091 36.647 8.091 10.249 0 20.529-1.821 30.431-5.478 20.776-7.673 37.744-22.764 47.777-42.492a7.865 7.865 0 10-14.019-7.13c-8.235 16.188-22.158 28.571-39.209 34.867-37.23 13.749-78.71-5.354-92.46-42.586l-14.108-38.206zm-17.5-16.813a7.89 7.89 0 001.856-.222c2.551-.619 56.176-13.905 79.698-41.892 8.67 10.67 23.537 20.508 44.263 15.925l4.147 11.228a7.864 7.864 0 007.071 5.134 7.831 7.831 0 007.449-4.568c2-4.344 5.571-7.647 10.055-9.304a17.745 17.745 0 0113.675.536 7.866 7.866 0 006.589-14.282c-8.155-3.762-17.286-4.12-25.712-1.009a33.72 33.72 0 00-9.152 5.102l-1.913-5.177a7.863 7.863 0 00-10.102-4.653c-11.431 4.223-20.982 2.934-29.194-3.94-6.58-5.507-9.76-12.65-9.777-12.688a7.863 7.863 0 00-7.122-4.776l-.111-.001a7.869 7.869 0 00-7.143 4.574c-9.755 21.178-48.356 36.381-69.258 42.555-6.459-27.684 8.592-56.58 35.936-66.678l27.227-10.055c14.348-5.299 29.897-4.692 43.788 1.705 13.891 6.398 24.458 17.823 29.757 32.169a7.865 7.865 0 0014.755-5.448c-6.753-18.287-20.224-32.85-37.931-41.005C381.822-1.423 362-2.196 343.712 4.559l-27.227 10.055c-37.75 13.942-57.121 55.998-43.179 93.748a7.866 7.866 0 007.374 5.14zM114.394 339.911c.777 0 1.568-.116 2.348-.36a7.862 7.862 0 005.161-9.851l-3.938-12.606a7.866 7.866 0 00-9.851-5.161 7.862 7.862 0 00-5.161 9.851l3.938 12.606a7.867 7.867 0 007.503 5.521zm35.122-10.599a7.862 7.862 0 005.161-9.851l-3.938-12.606a7.866 7.866 0 00-9.851-5.161 7.862 7.862 0 00-5.161 9.851l3.938 12.606a7.869 7.869 0 007.504 5.522 7.917 7.917 0 002.347-.361zm-56.355 45.277a7.864 7.864 0 00.407 11.115c8.327 7.74 18.503 11.676 29.924 11.676 4.518 0 9.232-.616 14.101-1.857a7.866 7.866 0 00-3.883-15.243c-11.91 3.037-21.815.984-29.434-6.098a7.866 7.866 0 00-11.115.407z"/><path d="M179.125 284.33a7.865 7.865 0 00-15.012 4.69l13.389 42.857c5.733 18.348 3.974 37.833-4.95 54.865-8.925 17.033-23.947 29.572-42.299 35.306-14.963 4.674-30.658 4.393-45.388-.813a7.864 7.864 0 00-5.241 14.829c9.481 3.35 19.285 5.028 29.113 5.028 8.789 0 17.599-1.343 26.206-4.032 22.363-6.987 40.667-22.264 51.541-43.018 10.875-20.754 13.016-44.498 6.03-66.856l-13.389-42.856zm-163.95 92.489a7.862 7.862 0 005.161-9.851 17.748 17.748 0 011.233-13.629c1.189-2.268 2.776-4.194 4.731-5.734 5.539-4.381 13.156-5.097 19.466-1.791a7.835 7.835 0 006.302.396c8.913-2.885 16.204-9.033 20.558-17.345 4.191-7.999 5.184-17.094 2.845-25.763l61.686-19.272c19.691-6.152 35.808-19.604 45.383-37.879 9.574-18.274 11.458-39.184 5.306-58.875-1.295-4.146-5.71-6.454-9.851-5.161L56.157 219.982c-40.651 12.7-63.389 56.104-50.689 96.754 1.295 4.146 5.707 6.454 9.853 5.161a7.864 7.864 0 005.161-9.853c-10.114-32.372 7.994-66.936 40.366-77.05l113.852-35.57c5.313 29.995-12.405 60.076-42.234 69.394L63.3 290.427a7.864 7.864 0 00-5.161 9.851l1.919 6.144a19.74 19.74 0 01-1.365 15.145c-2.029 3.872-5.2 6.904-9.087 8.737-11.024-4.292-23.647-2.488-33.053 4.957-3.693 2.909-6.693 6.536-8.914 10.775-4.172 7.95-4.994 17.05-2.316 25.622a7.868 7.868 0 007.505 5.522 7.894 7.894 0 002.347-.361z"/><path d="M173.719 463.666l-21.841-15.969a18.112 18.112 0 00-13.56-3.299 18.116 18.116 0 00-11.921 7.256l-8.462 11.573c-9.573-3.815-19.392-9.325-28.695-16.127-9.302-6.801-17.53-14.484-24.07-22.447l8.464-11.576c5.933-8.116 4.158-19.547-3.957-25.481l-21.845-15.971c-8.115-5.934-19.547-4.16-25.482 3.957l-2.78 3.802c-10.191 13.938-11.105 33.021-2.571 53.731 7.993 19.401 23.521 38.22 43.722 52.989s42.842 23.857 63.753 25.591c2.446.202 4.839.303 7.175.303 18.978 0 34.17-6.639 43.245-19.05l2.78-3.802a18.115 18.115 0 003.299-13.56 18.11 18.11 0 00-7.254-11.92zm-8.74 16.198l-2.78 3.802c-6.835 9.347-19.773 13.732-36.425 12.354-18.066-1.497-37.873-9.527-55.769-22.613s-31.556-29.522-38.463-46.285c-6.366-15.451-6.109-29.109.726-38.456l2.78-3.802a2.505 2.505 0 013.501-.545l21.845 15.971a2.508 2.508 0 01.544 3.5l-11.959 16.357a7.863 7.863 0 000 9.284c7.93 10.844 18.643 21.344 30.977 30.363 12.338 9.021 25.594 16.044 38.336 20.31a7.865 7.865 0 008.845-2.816l11.956-16.353a2.51 2.51 0 013.501-.544l21.841 15.969c.729.533.937 1.254.996 1.638a2.486 2.486 0 01-.452 1.866zm336.716-346.77c-8.611-20.678-22.749-33.526-39.812-36.176l-4.654-.722a18.113 18.113 0 00-13.561 3.299 18.112 18.112 0 00-7.256 11.921l-4.153 26.74a18.111 18.111 0 003.299 13.56 18.105 18.105 0 0011.92 7.255l14.171 2.201c1.007 10.255.622 21.504-1.147 32.892-1.769 11.389-4.815 22.229-8.887 31.695l-14.168-2.2a18.118 18.118 0 00-13.559 3.299 18.11 18.11 0 00-7.256 11.921l-4.152 26.736c-1.542 9.935 5.285 19.273 15.219 20.815l4.655.722c2.152.335 4.304.5 6.46.5 14.933-.001 29.797-7.96 42.448-22.897 13.561-16.013 23.144-38.449 26.984-63.176 3.842-24.728 1.515-49.014-6.551-68.385zm-8.99 65.971c-6.694 43.106-33.237 76.277-57.937 72.445l-4.656-.722a2.508 2.508 0 01-2.09-2.861l4.152-26.736a2.5 2.5 0 012.858-2.091l20.018 3.109a7.867 7.867 0 008.246-4.263c5.994-12.025 10.401-26.365 12.747-41.468 2.345-15.1 2.495-30.098.434-43.374a7.862 7.862 0 00-6.564-6.565l-20.023-3.11a2.493 2.493 0 01-1.638-.997 2.493 2.493 0 01-.454-1.862l4.153-26.74a2.5 2.5 0 012.859-2.091l4.654.722c11.442 1.777 21.281 11.251 27.706 26.679 6.973 16.736 8.938 38.018 5.535 59.925zM53.884 160.634h203.024a7.864 7.864 0 005.284-13.689l-39.364-35.704V52.507c0-17.856-14.527-32.384-32.384-32.384H53.884c-17.856 0-32.385 14.527-32.385 32.384v37.052a7.864 7.864 0 0015.728 0V52.507c0-9.184 7.471-16.655 16.656-16.655h136.561c9.184 0 16.655 7.471 16.655 16.655v62.217c0 2.219.937 4.335 2.581 5.825l26.851 24.356H53.884c-9.184 0-16.656-7.471-16.656-16.656v-13.524a7.864 7.864 0 00-15.728 0v13.525c0 17.856 14.528 32.384 32.384 32.384z"/><path d="M161.105 66.392H66.811a7.864 7.864 0 000 15.728h94.294a7.864 7.864 0 000-15.728zM118.128 106.5a7.864 7.864 0 007.864 7.864h52.416a7.864 7.864 0 000-15.728h-52.416a7.863 7.863 0 00-7.864 7.864zm-51.317 7.864h34.014a7.864 7.864 0 000-15.728H66.811a7.864 7.864 0 000 15.728zm382.635 185.732h-19.433a7.864 7.864 0 00-7.864 7.864 7.864 7.864 0 007.864 7.864h19.433c9.185 0 16.656 7.471 16.656 16.655v75.743c0 9.184-7.471 16.656-16.656 16.656H266.798l26.851-24.355a7.865 7.865 0 002.581-5.825v-62.217c0-9.184 7.471-16.655 16.655-16.655h91.961a7.864 7.864 0 007.864-7.864 7.864 7.864 0 00-7.864-7.864h-91.961c-17.856 0-32.384 14.527-32.384 32.384v58.733l-39.364 35.704a7.865 7.865 0 005.284 13.689h203.025c17.856 0 32.385-14.527 32.385-32.385V332.48c0-17.857-14.529-32.384-32.385-32.384z"/><path d="M420.107 346.365h-94.294a7.864 7.864 0 00-7.864 7.864 7.864 7.864 0 007.864 7.864h94.294a7.864 7.864 0 007.864-7.864 7.864 7.864 0 00-7.864-7.864zm-14.159 40.108a7.864 7.864 0 007.864 7.864h23.595a7.864 7.864 0 007.864-7.864 7.864 7.864 0 00-7.864-7.864h-23.595a7.864 7.864 0 00-7.864 7.864zm-80.135-7.865a7.864 7.864 0 00-7.864 7.864 7.864 7.864 0 007.864 7.864h62.835a7.864 7.864 0 007.864-7.864 7.864 7.864 0 00-7.864-7.864h-62.835z"/></svg>