<svg xmlns="http://www.w3.org/2000/svg" viewBox="0 0 41.167 41.167"><path d="M33.506 36.816c.114.27.172.544.172.822 0 .385-.102.743-.307 1.077a1.989 1.989 0 01-.859.764l-1.73.81a9.518 9.518 0 01-2.028.669 10.163 10.163 0 01-5.351-.346c-1.086-.37-2.125-.9-3.117-1.589s-1.923-1.523-2.792-2.5a19.355 19.355 0 01-2.335-3.271 40.26 40.26 0 01-1.381-2.283c-.409-.728-.876-1.6-1.402-2.617a54.208 54.208 0 01-1.592-3.384 43.332 43.332 0 01-1.304-3.249 45.614 45.614 0 01-.745-2.31 14.977 14.977 0 01-.423-1.841 19.574 19.574 0 01-.822-5.621c0-1.203.121-2.36.362-3.473a12.322 12.322 0 011.111-3.105 10.195 10.195 0 011.899-2.568A9.331 9.331 0 0113.583.957l1.706-.785c.269-.115.539-.172.809-.172.38 0 .734.105 1.062.316.327.211.573.502.736.874l3.283 7.455a2.079 2.079 0 01-.135 1.911c-.205.337-.493.59-.865.758l-3.375 1.552a2.26 2.26 0 00-1.025.902 2.458 2.458 0 00-.356 1.282c0 .348.065.675.196.982l5.541 12.653c.217.487.516.845.899 1.074a2.34 2.34 0 002.188.135l3.375-1.552a1.93 1.93 0 011.859.144c.331.211.581.5.749.868l3.276 7.462z" fill="#010002"/></svg>