<svg xmlns="http://www.w3.org/2000/svg" viewBox="0 0 503.001 503.001" width="512" height="512"><path fill="#f5f4f7" d="M63.5 95.501h368v336h-368z"/><path fill="#bfe666" d="M63.5 342.501l88-87 96 88 136-160 48 56v192h-368z"/><path d="M279.5 343.501l120.067-141.256-16.067-18.744-121.986 143.513zm-111.304-72.696L151.5 255.501l-88 87v33z" fill="#afe040"/><circle cx="247.5" cy="175.501" r="40" fill="#f0e513"/><path d="M431.5 88.001h-368a7.5 7.5 0 00-7.5 7.5v56.333c0 4.142 3.357 7.5 7.5 7.5s7.5-3.358 7.5-7.5v-48.833h353v116.226l-34.806-40.607c-2.958-3.451-8.465-3.439-11.409.023L246.828 332.711l-90.26-82.739a7.5 7.5 0 00-10.341.195L71 324.54V187.168c0-4.142-3.357-7.5-7.5-7.5s-7.5 3.358-7.5 7.5v244.333a7.5 7.5 0 007.5 7.5h368a7.5 7.5 0 007.5-7.5v-67.667c0-4.142-3.357-7.5-7.5-7.5s-7.5 3.358-7.5 7.5v60.167H71v-78.369l80.695-79.778 90.736 83.175c3.093 2.834 8.068 2.522 10.783-.671l130.309-153.305L424 242.275v85.893c0 4.142 3.357 7.5 7.5 7.5s7.5-3.358 7.5-7.5V95.501a7.5 7.5 0 00-7.5-7.5z"/><path d="M295 175.501c0-26.191-21.309-47.5-47.5-47.5s-47.5 21.309-47.5 47.5 21.309 47.5 47.5 47.5 47.5-21.309 47.5-47.5zm-80 0c0-17.92 14.579-32.5 32.5-32.5s32.5 14.58 32.5 32.5-14.579 32.5-32.5 32.5-32.5-14.58-32.5-32.5zm248.5-72.5h24c4.143 0 7.5-3.358 7.5-7.5s-3.357-7.5-7.5-7.5h-24c-4.143 0-7.5 3.358-7.5 7.5s3.357 7.5 7.5 7.5zm-32-71a7.5 7.5 0 00-7.5 7.5v24c0 4.142 3.357 7.5 7.5 7.5s7.5-3.358 7.5-7.5v-24a7.5 7.5 0 00-7.5-7.5zm-400 56h-24c-4.143 0-7.5 3.358-7.5 7.5s3.357 7.5 7.5 7.5h24c4.143 0 7.5-3.358 7.5-7.5s-3.357-7.5-7.5-7.5zm32-17a7.5 7.5 0 007.5-7.5v-24c0-4.142-3.357-7.5-7.5-7.5s-7.5 3.358-7.5 7.5v24a7.5 7.5 0 007.5 7.5zm424 353h-24c-4.143 0-7.5 3.358-7.5 7.5s3.357 7.5 7.5 7.5h24c4.143 0 7.5-3.358 7.5-7.5s-3.357-7.5-7.5-7.5zm-56 32a7.5 7.5 0 00-7.5 7.5v24c0 4.142 3.357 7.5 7.5 7.5s7.5-3.358 7.5-7.5v-24a7.5 7.5 0 00-7.5-7.5zm-400-32h-24c-4.143 0-7.5 3.358-7.5 7.5s3.357 7.5 7.5 7.5h24c4.143 0 7.5-3.358 7.5-7.5s-3.357-7.5-7.5-7.5zm32 32a7.5 7.5 0 00-7.5 7.5v24c0 4.142 3.357 7.5 7.5 7.5s7.5-3.358 7.5-7.5v-24a7.5 7.5 0 00-7.5-7.5zm163.84-386.26c3.403 2.27 8.135 1.319 10.4-2.08l9.76-14.64 9.76 14.64c2.446 3.669 7.69 4.417 11.07 1.578 2.887-2.424 3.5-6.764 1.41-9.899L256.513 39.5l13.227-19.84a7.5 7.5 0 10-12.48-8.32l-9.76 14.64-9.76-14.64a7.5 7.5 0 00-12.48 8.32l13.227 19.84-13.227 19.84a7.5 7.5 0 002.08 10.401zM499.66 233.26a7.499 7.499 0 00-10.4 2.08l-9.76 14.64-9.76-14.64c-2.266-3.401-7-4.347-10.4-2.08s-4.347 7-2.08 10.4L472 265.77v21.729c0 4.142 3.357 7.5 7.5 7.5s7.5-3.358 7.5-7.5V265.77l14.74-22.11a7.5 7.5 0 00-2.08-10.4z"/></svg>