<svg xmlns="http://www.w3.org/2000/svg" viewBox="0 0 64 64" width="512" height="512"><path d="M10 3v45h3v-6a5.992 5.992 0 013-5.191V24a4 4 0 014-4h24a4 4 0 014 4v12.809A5.992 5.992 0 0151 42v6h3V3z" fill="#ed1c24"/><path fill="#d51920" d="M10 3h44v4H10zm0 32h44v4H10zm0 9h44v4H10zm0-17h44v4H10zm0-8h44v4H10zm0-8h44v4H10z"/><path d="M13 57a4 4 0 008 0v-4h-8zm34 4a4 4 0 004-4v-4h-8v4a4 4 0 004 4z" fill="#58595b"/><path fill="#a7a9ac" d="M56 53v-5H8v5h48z"/><path d="M48 24v12.81a5.984 5.984 0 00-3-.81H19a5.984 5.984 0 00-3 .81V24a4 4 0 014-4h24a4 4 0 014 4z" fill="#2488ff"/><path d="M51 42v6H13v-6a5.92 5.92 0 01.83-3.04A6.026 6.026 0 0119 36h26a6.015 6.015 0 016 6z" fill="#006df0"/><path fill="#f1f2f2" d="M25 42h14v3H25z"/><path fill="#d9dada" d="M25 45h14v3H25z"/><circle cx="19" cy="43" r="2" fill="#f1f2f2"/><circle cx="45" cy="43" r="2" fill="#f1f2f2"/><path fill="#f1f2f2" d="M20 24h24v8H20z"/><path d="M56 47h-1V3a1 1 0 00-1-1H10a1 1 0 00-1 1v44H8a1 1 0 00-1 1v5a1 1 0 001 1h4v3a5 5 0 0010 0v-3h20v3a5 5 0 0010 0v-3h4a1 1 0 001-1v-5a1 1 0 00-1-1zM11 4h42v43h-1v-5a6.993 6.993 0 00-3-5.736V24a5.006 5.006 0 00-5-5v-5a1 1 0 00-2 0v5H21v-5a1 1 0 00-2 0v5.1a5.009 5.009 0 00-4 4.9v12.264A6.993 6.993 0 0012 42v5h-1zm27 40H26v-1h12zm-12 2h12v1H26zm14-4a1 1 0 00-1-1H25a1 1 0 00-1 1v5H14v-5a5.006 5.006 0 015-5h26a5.006 5.006 0 015 5v5H40zM20 21h24a3 3 0 013 3v11.3a6.956 6.956 0 00-2-.3H19a6.956 6.956 0 00-2 .3V24a3 3 0 013-3zm0 36a3 3 0 01-6 0v-3h6zm30 0a3 3 0 01-6 0v-3h6zm5-5H9v-3h46z"/><path d="M19 40a3 3 0 103 3 3 3 0 00-3-3zm0 4a1 1 0 111-1 1 1 0 01-1 1zm26-4a3 3 0 103 3 3 3 0 00-3-3zm0 4a1 1 0 111-1 1 1 0 01-1 1zM20 33h24a1 1 0 001-1v-8a1 1 0 00-1-1H20a1 1 0 00-1 1v8a1 1 0 001 1zm1-8h22v6H21z"/></svg>