<svg xmlns="http://www.w3.org/2000/svg" width="10.002" height="16.01"><path d="M10.002 15.138a9.578 9.578 0 01-1.849.678 7.808 7.808 0 01-1.79.194 4.868 4.868 0 01-1.717-.275 4.17 4.17 0 01-1.431-.791 2.873 2.873 0 01-.823-1.092 4.761 4.761 0 01-.229-1.677V6.561H-.001V4.292a5.613 5.613 0 001.8-.878 4.372 4.372 0 001.075-1.376 6.2 6.2 0 00.558-2.04h2.261v3.7h3.682v2.856H5.693v4.105a7.018 7.018 0 00.086 1.727 1.474 1.474 0 00.607.691 2.3 2.3 0 001.208.319A4.34 4.34 0 0010 12.605z" fill="#95e1d3"/></svg>