<svg xmlns="http://www.w3.org/2000/svg" viewBox="0 0 512 512"><path d="M256 112c-26.464 0-48 21.536-48 48s21.536 48 48 48 48-21.536 48-48-21.536-48-48-48zm0 64c-8.832 0-16-7.2-16-16s7.168-16 16-16 16 7.2 16 16-7.168 16-16 16zm-112 32c-26.464 0-48 21.536-48 48s21.536 48 48 48 48-21.536 48-48-21.536-48-48-48zm0 64c-8.832 0-16-7.2-16-16s7.168-16 16-16 16 7.2 16 16-7.168 16-16 16zm224-64c-26.464 0-48 21.536-48 48s21.536 48 48 48 48-21.536 48-48-21.536-48-48-48zm0 64c-8.832 0-16-7.2-16-16s7.168-16 16-16 16 7.2 16 16-7.168 16-16 16zm96 32c-26.464 0-48 21.536-48 48s21.536 48 48 48 48-21.536 48-48-21.536-48-48-48zm0 64c-8.832 0-16-7.2-16-16s7.168-16 16-16 16 7.2 16 16-7.168 16-16 16zM48 304c-26.464 0-48 21.536-48 48s21.536 48 48 48 48-21.536 48-48-21.536-48-48-48zm0 64c-8.832 0-16-7.2-16-16s7.168-16 16-16 16 7.2 16 16-7.168 16-16 16z"/></svg>